#usda 1.0
(
    customLayerData = {
        string creator = "URDF USD Converter v0.3.2"
    }
    defaultPrim = "ar5_o6_left"
    endTimeCode = 1000000
    kilogramsPerUnit = 1
    metersPerUnit = 1
    startTimeCode = 0
    upAxis = "Z"
)

over "ar5_o6_left"
{
    over "Geometry"
    {
        over "AR5_5_07L_W4C4A2_base" (
            prepend apiSchemas = ["PhysicsRigidBodyAPI", "PhysicsArticulationRootAPI", "NewtonArticulationRootAPI"]
        )
        {
            bool newton:selfCollisionEnabled = 0

            over "AR5_5_07L_W4C4A2_link1" (
                prepend apiSchemas = ["PhysicsRigidBodyAPI", "PhysicsMassAPI", "NewtonMassAPI"]
            )
            {
                double[] newton:inertia = [0.00493673, 0.00452344, 0.0043291, 0.0000016, 0.00000198, -2e-7]
                point3f physics:centerOfMass = (0.000001, -0.000621, 0.167909)
                float3 physics:diagonalInertia = (0.0043290933, 0.004523434, 0.0049367426)
                float physics:mass = 2.683
                quatf physics:principalAxes = (-0.7059521, -0.000991955, 0.7082567, -0.0017430714)

                over "AR5_5_07L_W4C4A2_link2" (
                    prepend apiSchemas = ["PhysicsRigidBodyAPI", "PhysicsMassAPI", "NewtonMassAPI"]
                )
                {
                    double[] newton:inertia = [0.01151906, 0.00993335, 0.00435237, 0.00000246, -5.5e-7, 0.00082477]
                    point3f physics:centerOfMass = (-0.00002, -0.003081, 0.102986)
                    float3 physics:diagonalInertia = (0.0042330353, 0.010052681, 0.011519064)
                    float physics:mass = 2.3
                    quatf physics:principalAxes = (0.70528495, 0.051328573, -0.70527977, -0.05018922)

                    over "AR5_5_07L_W4C4A2_link3" (
                        prepend apiSchemas = ["PhysicsRigidBodyAPI", "PhysicsMassAPI", "NewtonMassAPI"]
                    )
                    {
                        double[] newton:inertia = [0.00519681, 0.00470446, 0.00266752, 0.00001208, 0.00035761, 0.0000343]
                        point3f physics:centerOfMass = (0.007097, -0.000659, -0.016531)
                        float3 physics:diagonalInertia = (0.0026174302, 0.0047044475, 0.0052469126)
                        float physics:mass = 1.862
                        quatf physics:principalAxes = (-0.6566016, -0.015937783, 0.7540411, -0.0065127113)

                        over "AR5_5_07L_W4C4A2_link4" (
                            prepend apiSchemas = ["PhysicsRigidBodyAPI", "PhysicsMassAPI", "NewtonMassAPI"]
                        )
                        {
                            double[] newton:inertia = [0.0038959, 0.00308657, 0.00188364, -0.00004577, -0.0001728, 0.00046679]
                            point3f physics:centerOfMass = (-0.007826, -0.004207, 0.073404)
                            float3 physics:diagonalInertia = (0.0017136007, 0.0032319261, 0.003920583)
                            float physics:mass = 1.234
                            quatf physics:principalAxes = (0.72784996, 0.065668344, -0.66372955, -0.15932727)

                            over "AR5_5_07L_W4C4A2_link5" (
                                prepend apiSchemas = ["PhysicsRigidBodyAPI", "PhysicsMassAPI", "NewtonMassAPI"]
                            )
                            {
                                double[] newton:inertia = [0.00281562, 0.00221084, 0.00182169, 0.00001782, 0.0000165, 0.000021]
                                point3f physics:centerOfMass = (0.000284, 0.001651, -0.084133)
                                float3 physics:diagonalInertia = (0.0018203178, 0.002211393, 0.0028164391)
                                float physics:mass = 1.329
                                quatf physics:principalAxes = (-0.70095116, -0.029418865, 0.7125586, 0.007885511)

                                over "AR5_5_07L_W4C4A2_link6" (
                                    prepend apiSchemas = ["PhysicsRigidBodyAPI", "PhysicsMassAPI", "NewtonMassAPI"]
                                )
                                {
                                    double[] newton:inertia = [0.00072078, 0.00085153, 0.00090205, -0.00000217, 0.00000108, 4.8e-7]
                                    point3f physics:centerOfMass = (0.005406, 0.000612, -0.000039)
                                    float3 physics:diagonalInertia = (0.00072073744, 0.0008515618, 0.00090206077)
                                    float physics:mass = 0.93
                                    quatf physics:principalAxes = (0.9999504, -0.0045993496, 0.0029616887, 0.00831933)

                                    over "AR5_5_07L_W4C4A2_link7" (
                                        prepend apiSchemas = ["PhysicsRigidBodyAPI", "PhysicsMassAPI", "NewtonMassAPI"]
                                    )
                                    {
                                        double[] newton:inertia = [0.00051942, 0.00079132, 0.00045886, -5.2e-7, 0.00003721, 0.00000265]
                                        point3f physics:centerOfMass = (-0.00277, 0.000316, 0.054881)
                                        float3 physics:diagonalInertia = (0.0004411469, 0.00053711183, 0.0007913413)
                                        float physics:mass = 0.33
                                        quatf physics:principalAxes = (-0.37943313, 0.37595928, 0.59558064, 0.5999741)

                                        over "AR5_5_07L_W4C4A2_tcp" (
                                            prepend apiSchemas = ["PhysicsRigidBodyAPI", "PhysicsMassAPI", "NewtonMassAPI"]
                                        )
                                        {
                                            double[] newton:inertia = [0.000001, 0.000001, 0.000001, 0, 0, 0]
                                            float3 physics:diagonalInertia = (0.000001, 0.000001, 0.000001)
                                            float physics:mass = 0
                                            quatf physics:principalAxes = (1, 0, 0, 0)

                                            over "lh_rk_adapter" (
                                                prepend apiSchemas = ["PhysicsRigidBodyAPI", "PhysicsMassAPI", "NewtonMassAPI"]
                                            )
                                            {
                                                double[] newton:inertia = [0.000001, 0.000001, 0.000001, 0, 0, 0]
                                                point3f physics:centerOfMass = (0, 0, 0)
                                                float3 physics:diagonalInertia = (0.000001, 0.000001, 0.000001)
                                                float physics:mass = 0.05
                                                quatf physics:principalAxes = (1, 0, 0, 0)

                                                over "lh_hand_base_link" (
                                                    prepend apiSchemas = ["PhysicsRigidBodyAPI", "PhysicsMassAPI", "NewtonMassAPI"]
                                                )
                                                {
                                                    double[] newton:inertia = [0.0000522525212160954, 0.0000333522349207724, 0.0000228469461105385, 3.06955729584715e-7, -3.90341166950521e-7, -7.76680063574627e-7]
                                                    point3f physics:centerOfMass = (-0.0015778857, -0.00034876727, 0.053845223)
                                                    float3 physics:diagonalInertia = (0.000022785269, 0.000033403405, 0.00005226303)
                                                    float physics:mass = 0.067293525
                                                    quatf physics:principalAxes = (0.7112235, -0.0196564, -0.7019677, 0.031875554)

                                                    over "lh_thumb_metacarpals_base2" (
                                                        prepend apiSchemas = ["PhysicsRigidBodyAPI", "PhysicsMassAPI", "NewtonMassAPI"]
                                                    )
                                                    {
                                                        double[] newton:inertia = [5.26292160685909e-8, 4.82620491570326e-8, 2.88550286112821e-8, -3.92888681640568e-9, -2.43767371295222e-9, 3.71869784206147e-9]
                                                        point3f physics:centerOfMass = (0.0016280068, -0.0027668017, -0.0018423444)
                                                        float3 physics:diagonalInertia = (2.804746e-8, 4.6153662e-8, 5.5545172e-8)
                                                        float physics:mass = 0.001385883
                                                        quatf physics:principalAxes = (0.71651435, -0.1483551, -0.6348633, -0.2480857)

                                                        over "lh_thumb_metacarpals" (
                                                            prepend apiSchemas = ["PhysicsRigidBodyAPI", "PhysicsMassAPI", "NewtonMassAPI"]
                                                        )
                                                        {
                                                            double[] newton:inertia = [0.00000110292537368909, 0.00000176757772551884, 9.36347792411098e-7, -5.99642232777877e-10, -1.14233573940545e-7, -4.03963570823777e-10]
                                                            point3f physics:centerOfMass = (0.00004248162, 0.000017418392, 0.022834163)
                                                            float3 physics:diagonalInertia = (8.782631e-7, 0.0000011610094, 0.0000017675784)
                                                            float physics:mass = 0.012338159
                                                            quatf physics:principalAxes = (0.602796, -0.6027095, -0.37003604, -0.3693936)

                                                            over "lh_thumb_distal" (
                                                                prepend apiSchemas = ["PhysicsRigidBodyAPI", "PhysicsMassAPI", "NewtonMassAPI"]
                                                            )
                                                            {
                                                                double[] newton:inertia = [0.0000013057487813702, 0.0000012248908905341, 2.77271910592615e-7, -1.19781508112714e-11, -7.19551697268541e-8, 4.55347974652679e-12]
                                                                point3f physics:centerOfMass = (-0.004137257, -5.907045e-8, 0.023011401)
                                                                float3 physics:diagonalInertia = (2.7226213e-7, 0.0000012248909, 0.0000013107585)
                                                                float physics:mass = 0.0076333294
                                                                quatf physics:principalAxes = (0.7312508, -0.000050898147, -0.68210864, -0.000050140923)
                                                            }
                                                        }
                                                    }

                                                    over "lh_index_proximal" (
                                                        prepend apiSchemas = ["PhysicsRigidBodyAPI", "PhysicsMassAPI", "NewtonMassAPI"]
                                                    )
                                                    {
                                                        double[] newton:inertia = [2.65988714157799e-7, 2.72914069166233e-7, 8.56017305636748e-8, -1.67174578825824e-11, -4.31047725546034e-8, 1.8756709532167e-10]
                                                        point3f physics:centerOfMass = (-0.0020865656, 0.0000025383872, 0.017273495)
                                                        float3 physics:diagonalInertia = (7.583063e-8, 2.7291307e-7, 2.757608e-7)
                                                        float physics:mass = 0.0025317466
                                                        quatf physics:principalAxes = (0.78133, -0.007643632, -0.6240355, -0.0066868095)

                                                        over "lh_index_distal" (
                                                            prepend apiSchemas = ["PhysicsRigidBodyAPI", "PhysicsMassAPI", "NewtonMassAPI"]
                                                        )
                                                        {
                                                            double[] newton:inertia = [3.22347106085043e-7, 3.65328133721509e-7, 1.24287996386442e-7, 1.3801788663582e-11, 1.14352857317951e-7, -2.11505011705634e-10]
                                                            point3f physics:centerOfMass = (0.0065898662, 0.0000051385564, 0.01943936)
                                                            float3 physics:diagonalInertia = (7.204472e-8, 3.6532765e-7, 3.7459085e-7)
                                                            float physics:mass = 0.003769511
                                                            quatf physics:principalAxes = (-0.54057455, 0.0024824692, 0.84128624, 0.0032386186)
                                                        }
                                                    }

                                                    over "lh_middle_proximal" (
                                                        prepend apiSchemas = ["PhysicsRigidBodyAPI", "PhysicsMassAPI", "NewtonMassAPI"]
                                                    )
                                                    {
                                                        double[] newton:inertia = [2.65989021304483e-7, 2.72914402745606e-7, 8.5602213431865e-8, -1.69816046635662e-11, -4.31046683215273e-8, 1.87484652324395e-10]
                                                        point3f physics:centerOfMass = (-0.0020866066, 0.0000025691818, 0.0172735)
                                                        float3 physics:diagonalInertia = (7.5831146e-8, 2.7291338e-7, 2.757611e-7)
                                                        float physics:mass = 0.0025317736
                                                        quatf physics:principalAxes = (0.7813296, -0.0076768305, -0.62403536, -0.0067128767)

                                                        over "lh_middle_distal" (
                                                            prepend apiSchemas = ["PhysicsRigidBodyAPI", "PhysicsMassAPI", "NewtonMassAPI"]
                                                        )
                                                        {
                                                            double[] newton:inertia = [3.22348591068053e-7, 3.65329535087755e-7, 1.24288425862546e-7, 1.37122394856588e-11, 1.1435291391668e-7, -2.10453810291991e-10]
                                                            point3f physics:centerOfMass = (0.0065898653, 0.0000051086295, 0.019439332)
                                                            float3 physics:diagonalInertia = (7.204529e-8, 3.6532907e-7, 3.745922e-7)
                                                            float physics:mass = 0.003769528
                                                            quatf physics:principalAxes = (-0.5405751, 0.0024706838, 0.84128594, 0.003223407)
                                                        }
                                                    }

                                                    over "lh_ring_proximal" (
                                                        prepend apiSchemas = ["PhysicsRigidBodyAPI", "PhysicsMassAPI", "NewtonMassAPI"]
                                                    )
                                                    {
                                                        double[] newton:inertia = [2.65989756076584e-7, 2.7291510093393e-7, 8.56031522765909e-8, -1.74912952703656e-11, -4.31043325594253e-8, 1.87158326740895e-10]
                                                        point3f physics:centerOfMass = (-0.0020866792, 0.0000026300042, 0.017273493)
                                                        float3 physics:diagonalInertia = (7.5832226e-8, 2.7291406e-7, 2.7576172e-7)
                                                        float physics:mass = 0.0025318223
                                                        quatf physics:principalAxes = (0.78132856, -0.0077359965, -0.62403536, -0.0067587425)

                                                        over "lh_ring_distal" (
                                                            prepend apiSchemas = ["PhysicsRigidBodyAPI", "PhysicsMassAPI", "NewtonMassAPI"]
                                                        )
                                                        {
                                                            double[] newton:inertia = [3.2234524157181e-7, 3.65326570102147e-7, 1.24287770218135e-7, 1.35766976056011e-11, 1.14353011012842e-7, -2.08672149138738e-10]
                                                            point3f physics:centerOfMass = (0.0065898667, 0.000005058835, 0.019439397)
                                                            float3 physics:diagonalInertia = (7.20441e-8, 3.6532612e-7, 3.7458938e-7)
                                                            float physics:mass = 0.003769496
                                                            quatf physics:principalAxes = (-0.54057366, 0.002450255, 0.841287, 0.0031969126)
                                                        }
                                                    }

                                                    over "lh_pinky_proximal" (
                                                        prepend apiSchemas = ["PhysicsRigidBodyAPI", "PhysicsMassAPI", "NewtonMassAPI"]
                                                    )
                                                    {
                                                        double[] newton:inertia = [2.6599033687183e-7, 2.72915617381577e-7, 8.56039175034871e-8, -1.79030790016555e-11, -4.31040829565781e-8, 1.86906787420486e-10]
                                                        point3f physics:centerOfMass = (-0.002086736, 0.0000026806224, 0.017273486)
                                                        float3 physics:diagonalInertia = (7.5833086e-8, 2.7291458e-7, 2.7576223e-7)
                                                        float physics:mass = 0.00253186
                                                        quatf physics:principalAxes = (0.78132784, -0.007784023, -0.6240353, -0.0067960154)

                                                        over "lh_pinky_distal" (
                                                            prepend apiSchemas = ["PhysicsRigidBodyAPI", "PhysicsMassAPI", "NewtonMassAPI"]
                                                        )
                                                        {
                                                            double[] newton:inertia = [3.22343583730488e-7, 3.65325180884183e-7, 1.24287567374229e-7, 1.35768173270357e-11, 1.14353289593012e-7, -2.0744198062439e-10]
                                                            point3f physics:centerOfMass = (0.006589876, 0.0000050308754, 0.01943945)
                                                            float3 physics:diagonalInertia = (7.2043434e-8, 3.6532472e-7, 3.7458818e-7)
                                                            float physics:mass = 0.0037694806
                                                            quatf physics:principalAxes = (-0.54057276, 0.0024336982, 0.8412878, 0.0031746821)
                                                        }
                                                    }
                                                }
                                            }

                                            over "box_1" (
                                                prepend apiSchemas = ["NewtonCollisionAPI"]
                                            )
                                            {
                                            }
                                        }
                                    }
                                }
                            }
                        }
                    }
                }
            }
        }
    }

    over "Physics"
    {
        def PhysicsRevoluteJoint "AR5_5_07L_W4C4A2_joint_1" (
            prepend apiSchemas = ["NewtonJointAPI", "PhysicsDriveAPI:angular", "PhysicsJointStateAPI:angular"]
        )
        {
            float drive:angular:physics:maxForce = 108
            float newton:velocityLimit = 175
            uniform token physics:axis = "Z"
            custom rel physics:body0
            append rel physics:body0 = </ar5_o6_left/Geometry/AR5_5_07L_W4C4A2_base>
            custom rel physics:body1
            append rel physics:body1 = </ar5_o6_left/Geometry/AR5_5_07L_W4C4A2_base/AR5_5_07L_W4C4A2_link1>
            point3f physics:localPos0 = (0, 0, 0)
            point3f physics:localPos1 = (0, 0, 0)
            quatf physics:localRot0 = (1, 0, 0, 0)
            quatf physics:localRot1 = (1, 0, 0, 0)
            float physics:lowerLimit = -178.0008
            float physics:upperLimit = 178.0008
            custom float urdf:limit:effort = 108
        }

        def PhysicsRevoluteJoint "AR5_5_07L_W4C4A2_joint_2" (
            prepend apiSchemas = ["NewtonJointAPI", "PhysicsDriveAPI:angular", "PhysicsJointStateAPI:angular"]
        )
        {
            float drive:angular:physics:maxForce = 108
            float newton:velocityLimit = 175
            uniform token physics:axis = "Y"
            custom rel physics:body0
            append rel physics:body0 = </ar5_o6_left/Geometry/AR5_5_07L_W4C4A2_base/AR5_5_07L_W4C4A2_link1>
            custom rel physics:body1
            append rel physics:body1 = </ar5_o6_left/Geometry/AR5_5_07L_W4C4A2_base/AR5_5_07L_W4C4A2_link1/AR5_5_07L_W4C4A2_link2>
            point3f physics:localPos0 = (0, 0, 0.1745)
            point3f physics:localPos1 = (0, 0, 0)
            quatf physics:localRot0 = (1, 0, 0, 0)
            quatf physics:localRot1 = (1, 0, 0, 0)
            float physics:lowerLimit = -120.00028
            float physics:upperLimit = 120.00028
            custom float urdf:limit:effort = 108
        }

        def PhysicsRevoluteJoint "AR5_5_07L_W4C4A2_joint_3" (
            prepend apiSchemas = ["NewtonJointAPI", "PhysicsDriveAPI:angular", "PhysicsJointStateAPI:angular"]
        )
        {
            float drive:angular:physics:maxForce = 66
            float newton:velocityLimit = 270
            uniform token physics:axis = "Z"
            custom rel physics:body0
            append rel physics:body0 = </ar5_o6_left/Geometry/AR5_5_07L_W4C4A2_base/AR5_5_07L_W4C4A2_link1/AR5_5_07L_W4C4A2_link2>
            custom rel physics:body1
            append rel physics:body1 = </ar5_o6_left/Geometry/AR5_5_07L_W4C4A2_base/AR5_5_07L_W4C4A2_link1/AR5_5_07L_W4C4A2_link2/AR5_5_07L_W4C4A2_link3>
            point3f physics:localPos0 = (0, 0, 0.314)
            point3f physics:localPos1 = (0, 0, 0)
            quatf physics:localRot0 = (1, 0, 0, 0)
            quatf physics:localRot1 = (1, 0, 0, 0)
            float physics:lowerLimit = -178.0008
            float physics:upperLimit = 178.0008
            custom float urdf:limit:effort = 66
        }

        def PhysicsRevoluteJoint "AR5_5_07L_W4C4A2_joint_4" (
            prepend apiSchemas = ["NewtonJointAPI", "PhysicsDriveAPI:angular", "PhysicsJointStateAPI:angular"]
        )
        {
            float drive:angular:physics:maxForce = 66
            float newton:velocityLimit = 300
            uniform token physics:axis = "Y"
            custom rel physics:body0
            append rel physics:body0 = </ar5_o6_left/Geometry/AR5_5_07L_W4C4A2_base/AR5_5_07L_W4C4A2_link1/AR5_5_07L_W4C4A2_link2/AR5_5_07L_W4C4A2_link3>
            custom rel physics:body1
            append rel physics:body1 = </ar5_o6_left/Geometry/AR5_5_07L_W4C4A2_base/AR5_5_07L_W4C4A2_link1/AR5_5_07L_W4C4A2_link2/AR5_5_07L_W4C4A2_link3/AR5_5_07L_W4C4A2_link4>
            point3f physics:localPos0 = (0.01, 0, 0)
            point3f physics:localPos1 = (0, 0, 0)
            quatf physics:localRot0 = (1, 0, 0, 0)
            quatf physics:localRot1 = (1, 0, 0, 0)
            float physics:lowerLimit = -60.00014
            float physics:upperLimit = 144.99843
            custom float urdf:limit:effort = 66
        }

        def PhysicsRevoluteJoint "AR5_5_07L_W4C4A2_joint_5" (
            prepend apiSchemas = ["NewtonJointAPI", "PhysicsDriveAPI:angular", "PhysicsJointStateAPI:angular"]
        )
        {
            float drive:angular:physics:maxForce = 19
            float newton:velocityLimit = 240
            uniform token physics:axis = "Z"
            custom rel physics:body0
            append rel physics:body0 = </ar5_o6_left/Geometry/AR5_5_07L_W4C4A2_base/AR5_5_07L_W4C4A2_link1/AR5_5_07L_W4C4A2_link2/AR5_5_07L_W4C4A2_link3/AR5_5_07L_W4C4A2_link4>
            custom rel physics:body1
            append rel physics:body1 = </ar5_o6_left/Geometry/AR5_5_07L_W4C4A2_base/AR5_5_07L_W4C4A2_link1/AR5_5_07L_W4C4A2_link2/AR5_5_07L_W4C4A2_link3/AR5_5_07L_W4C4A2_link4/AR5_5_07L_W4C4A2_link5>
            point3f physics:localPos0 = (-0.01, 0, 0.272)
            point3f physics:localPos1 = (0, 0, 0)
            quatf physics:localRot0 = (1, 0, 0, 0)
            quatf physics:localRot1 = (1, 0, 0, 0)
            float physics:lowerLimit = -178.0008
            float physics:upperLimit = 178.0008
            custom float urdf:limit:effort = 19
        }

        def PhysicsRevoluteJoint "AR5_5_07L_W4C4A2_joint_6" (
            prepend apiSchemas = ["NewtonJointAPI", "PhysicsDriveAPI:angular", "PhysicsJointStateAPI:angular"]
        )
        {
            float drive:angular:physics:maxForce = 19
            float newton:velocityLimit = 240
            uniform token physics:axis = "Y"
            custom rel physics:body0
            append rel physics:body0 = </ar5_o6_left/Geometry/AR5_5_07L_W4C4A2_base/AR5_5_07L_W4C4A2_link1/AR5_5_07L_W4C4A2_link2/AR5_5_07L_W4C4A2_link3/AR5_5_07L_W4C4A2_link4/AR5_5_07L_W4C4A2_link5>
            custom rel physics:body1
            append rel physics:body1 = </ar5_o6_left/Geometry/AR5_5_07L_W4C4A2_base/AR5_5_07L_W4C4A2_link1/AR5_5_07L_W4C4A2_link2/AR5_5_07L_W4C4A2_link3/AR5_5_07L_W4C4A2_link4/AR5_5_07L_W4C4A2_link5/AR5_5_07L_W4C4A2_link6>
            point3f physics:localPos0 = (0, 0, 0)
            point3f physics:localPos1 = (0, 0, 0)
            quatf physics:localRot0 = (1, 0, 0, 0)
            quatf physics:localRot1 = (1, 0, 0, 0)
            float physics:lowerLimit = -60.00014
            float physics:upperLimit = 60.00014
            custom float urdf:limit:effort = 19
        }

        def PhysicsRevoluteJoint "AR5_5_07L_W4C4A2_joint_7" (
            prepend apiSchemas = ["NewtonJointAPI", "PhysicsDriveAPI:angular", "PhysicsJointStateAPI:angular"]
        )
        {
            float drive:angular:physics:maxForce = 19
            float newton:velocityLimit = 240
            uniform token physics:axis = "X"
            custom rel physics:body0
            append rel physics:body0 = </ar5_o6_left/Geometry/AR5_5_07L_W4C4A2_base/AR5_5_07L_W4C4A2_link1/AR5_5_07L_W4C4A2_link2/AR5_5_07L_W4C4A2_link3/AR5_5_07L_W4C4A2_link4/AR5_5_07L_W4C4A2_link5/AR5_5_07L_W4C4A2_link6>
            custom rel physics:body1
            append rel physics:body1 = </ar5_o6_left/Geometry/AR5_5_07L_W4C4A2_base/AR5_5_07L_W4C4A2_link1/AR5_5_07L_W4C4A2_link2/AR5_5_07L_W4C4A2_link3/AR5_5_07L_W4C4A2_link4/AR5_5_07L_W4C4A2_link5/AR5_5_07L_W4C4A2_link6/AR5_5_07L_W4C4A2_link7>
            point3f physics:localPos0 = (0, 0, 0)
            point3f physics:localPos1 = (0, 0, 0)
            quatf physics:localRot0 = (1, 0, 0, 0)
            quatf physics:localRot1 = (1, 0, 0, 0)
            float physics:lowerLimit = -60.00014
            float physics:upperLimit = 60.00014
            custom float urdf:limit:effort = 19
        }

        def PhysicsRevoluteJoint "lh_thumb_cmc_yaw" (
            prepend apiSchemas = ["NewtonJointAPI", "PhysicsDriveAPI:angular", "PhysicsJointStateAPI:angular"]
        )
        {
            float drive:angular:physics:maxForce = 100
            float newton:velocityLimit = 57.29578
            uniform token physics:axis = "Z"
            custom rel physics:body0
            append rel physics:body0 = </ar5_o6_left/Geometry/AR5_5_07L_W4C4A2_base/AR5_5_07L_W4C4A2_link1/AR5_5_07L_W4C4A2_link2/AR5_5_07L_W4C4A2_link3/AR5_5_07L_W4C4A2_link4/AR5_5_07L_W4C4A2_link5/AR5_5_07L_W4C4A2_link6/AR5_5_07L_W4C4A2_link7/AR5_5_07L_W4C4A2_tcp/lh_rk_adapter/lh_hand_base_link>
            custom rel physics:body1
            append rel physics:body1 = </ar5_o6_left/Geometry/AR5_5_07L_W4C4A2_base/AR5_5_07L_W4C4A2_link1/AR5_5_07L_W4C4A2_link2/AR5_5_07L_W4C4A2_link3/AR5_5_07L_W4C4A2_link4/AR5_5_07L_W4C4A2_link5/AR5_5_07L_W4C4A2_link6/AR5_5_07L_W4C4A2_link7/AR5_5_07L_W4C4A2_tcp/lh_rk_adapter/lh_hand_base_link/lh_thumb_metacarpals_base2>
            point3f physics:localPos0 = (0.011508, -0.022975, 0.032794)
            point3f physics:localPos1 = (0, 0, 0)
            quatf physics:localRot0 = (1, 0, 0, 0)
            quatf physics:localRot1 = (1, 0, 0, 0)
            float physics:lowerLimit = 0
            float physics:upperLimit = 74.48451
            custom float urdf:limit:effort = 100
        }

        def PhysicsRevoluteJoint "lh_thumb_cmc_pitch" (
            prepend apiSchemas = ["NewtonJointAPI", "PhysicsDriveAPI:angular", "PhysicsJointStateAPI:angular"]
        )
        {
            float drive:angular:physics:maxForce = 100
            float newton:velocityLimit = 57.29578
            uniform token physics:axis = "Y"
            custom rel physics:body0
            append rel physics:body0 = </ar5_o6_left/Geometry/AR5_5_07L_W4C4A2_base/AR5_5_07L_W4C4A2_link1/AR5_5_07L_W4C4A2_link2/AR5_5_07L_W4C4A2_link3/AR5_5_07L_W4C4A2_link4/AR5_5_07L_W4C4A2_link5/AR5_5_07L_W4C4A2_link6/AR5_5_07L_W4C4A2_link7/AR5_5_07L_W4C4A2_tcp/lh_rk_adapter/lh_hand_base_link/lh_thumb_metacarpals_base2>
            custom rel physics:body1
            append rel physics:body1 = </ar5_o6_left/Geometry/AR5_5_07L_W4C4A2_base/AR5_5_07L_W4C4A2_link1/AR5_5_07L_W4C4A2_link2/AR5_5_07L_W4C4A2_link3/AR5_5_07L_W4C4A2_link4/AR5_5_07L_W4C4A2_link5/AR5_5_07L_W4C4A2_link6/AR5_5_07L_W4C4A2_link7/AR5_5_07L_W4C4A2_tcp/lh_rk_adapter/lh_hand_base_link/lh_thumb_metacarpals_base2/lh_thumb_metacarpals>
            point3f physics:localPos0 = (0.0061649, -0.010678, -0.004891)
            point3f physics:localPos1 = (0, 0, 0)
            quatf physics:localRot0 = (0.41919965, 0.47202873, -0.27252436, 0.7260792)
            quatf physics:localRot1 = (1, 0, 0, 0)
            float physics:lowerLimit = 0
            float physics:upperLimit = 33.231552
            custom float urdf:limit:effort = 100
        }

        def PhysicsRevoluteJoint "lh_thumb_ip" (
            prepend apiSchemas = ["NewtonJointAPI", "NewtonMimicAPI", "PhysicsDriveAPI:angular", "PhysicsJointStateAPI:angular"]
        )
        {
            float drive:angular:physics:maxForce = 100
            float newton:mimicCoef1 = 2.29
            rel newton:mimicJoint = </ar5_o6_left/Physics/lh_thumb_cmc_pitch>
            float newton:velocityLimit = 57.29578
            uniform token physics:axis = "Y"
            custom rel physics:body0
            append rel physics:body0 = </ar5_o6_left/Geometry/AR5_5_07L_W4C4A2_base/AR5_5_07L_W4C4A2_link1/AR5_5_07L_W4C4A2_link2/AR5_5_07L_W4C4A2_link3/AR5_5_07L_W4C4A2_link4/AR5_5_07L_W4C4A2_link5/AR5_5_07L_W4C4A2_link6/AR5_5_07L_W4C4A2_link7/AR5_5_07L_W4C4A2_tcp/lh_rk_adapter/lh_hand_base_link/lh_thumb_metacarpals_base2/lh_thumb_metacarpals>
            custom rel physics:body1
            append rel physics:body1 = </ar5_o6_left/Geometry/AR5_5_07L_W4C4A2_base/AR5_5_07L_W4C4A2_link1/AR5_5_07L_W4C4A2_link2/AR5_5_07L_W4C4A2_link3/AR5_5_07L_W4C4A2_link4/AR5_5_07L_W4C4A2_link5/AR5_5_07L_W4C4A2_link6/AR5_5_07L_W4C4A2_link7/AR5_5_07L_W4C4A2_tcp/lh_rk_adapter/lh_hand_base_link/lh_thumb_metacarpals_base2/lh_thumb_metacarpals/lh_thumb_distal>
            point3f physics:localPos0 = (0.0037776, 6.938894e-18, 0.045368)
            point3f physics:localPos1 = (0, 0, 0)
            quatf physics:localRot0 = (1, 0, 0, 0)
            quatf physics:localRot1 = (1, 0, 0, 0)
            float physics:lowerLimit = 0
            float physics:upperLimit = 61.87944
            custom float urdf:limit:effort = 100
        }

        def PhysicsRevoluteJoint "lh_index_mcp_pitch" (
            prepend apiSchemas = ["NewtonJointAPI", "PhysicsDriveAPI:angular", "PhysicsJointStateAPI:angular"]
        )
        {
            float drive:angular:physics:maxForce = 100
            float newton:velocityLimit = 57.29578
            uniform token physics:axis = "Y"
            custom rel physics:body0
            append rel physics:body0 = </ar5_o6_left/Geometry/AR5_5_07L_W4C4A2_base/AR5_5_07L_W4C4A2_link1/AR5_5_07L_W4C4A2_link2/AR5_5_07L_W4C4A2_link3/AR5_5_07L_W4C4A2_link4/AR5_5_07L_W4C4A2_link5/AR5_5_07L_W4C4A2_link6/AR5_5_07L_W4C4A2_link7/AR5_5_07L_W4C4A2_tcp/lh_rk_adapter/lh_hand_base_link>
            custom rel physics:body1
            append rel physics:body1 = </ar5_o6_left/Geometry/AR5_5_07L_W4C4A2_base/AR5_5_07L_W4C4A2_link1/AR5_5_07L_W4C4A2_link2/AR5_5_07L_W4C4A2_link3/AR5_5_07L_W4C4A2_link4/AR5_5_07L_W4C4A2_link5/AR5_5_07L_W4C4A2_link6/AR5_5_07L_W4C4A2_link7/AR5_5_07L_W4C4A2_tcp/lh_rk_adapter/lh_hand_base_link/lh_index_proximal>
            point3f physics:localPos0 = (0.0024758, -0.02419, 0.098779)
            point3f physics:localPos1 = (0, 0, 0)
            quatf physics:localRot0 = (0.99965733, 0.026176646, 1.7347235e-18, 1.6653345e-16)
            quatf physics:localRot1 = (1, 0, 0, 0)
            float physics:lowerLimit = 0
            float physics:upperLimit = 91.67325
            custom float urdf:limit:effort = 100
        }

        def PhysicsRevoluteJoint "lh_index_dip" (
            prepend apiSchemas = ["NewtonJointAPI", "NewtonMimicAPI", "PhysicsDriveAPI:angular", "PhysicsJointStateAPI:angular"]
        )
        {
            float drive:angular:physics:maxForce = 100
            float newton:mimicCoef1 = 0.89
            rel newton:mimicJoint = </ar5_o6_left/Physics/lh_index_mcp_pitch>
            float newton:velocityLimit = 57.29578
            uniform token physics:axis = "Y"
            custom rel physics:body0
            append rel physics:body0 = </ar5_o6_left/Geometry/AR5_5_07L_W4C4A2_base/AR5_5_07L_W4C4A2_link1/AR5_5_07L_W4C4A2_link2/AR5_5_07L_W4C4A2_link3/AR5_5_07L_W4C4A2_link4/AR5_5_07L_W4C4A2_link5/AR5_5_07L_W4C4A2_link6/AR5_5_07L_W4C4A2_link7/AR5_5_07L_W4C4A2_tcp/lh_rk_adapter/lh_hand_base_link/lh_index_proximal>
            custom rel physics:body1
            append rel physics:body1 = </ar5_o6_left/Geometry/AR5_5_07L_W4C4A2_base/AR5_5_07L_W4C4A2_link1/AR5_5_07L_W4C4A2_link2/AR5_5_07L_W4C4A2_link3/AR5_5_07L_W4C4A2_link4/AR5_5_07L_W4C4A2_link5/AR5_5_07L_W4C4A2_link6/AR5_5_07L_W4C4A2_link7/AR5_5_07L_W4C4A2_tcp/lh_rk_adapter/lh_hand_base_link/lh_index_proximal/lh_index_distal>
            point3f physics:localPos0 = (-0.0052516, -3.469447e-18, 0.036625)
            point3f physics:localPos1 = (0, 0, 0)
            quatf physics:localRot0 = (1, 0, 0, 0)
            quatf physics:localRot1 = (1, 0, 0, 0)
            float physics:lowerLimit = 0
            float physics:upperLimit = 81.93297
            custom float urdf:limit:effort = 100
        }

        def PhysicsRevoluteJoint "lh_middle_mcp_pitch" (
            prepend apiSchemas = ["NewtonJointAPI", "PhysicsDriveAPI:angular", "PhysicsJointStateAPI:angular"]
        )
        {
            float drive:angular:physics:maxForce = 100
            float newton:velocityLimit = 57.29578
            uniform token physics:axis = "Y"
            custom rel physics:body0
            append rel physics:body0 = </ar5_o6_left/Geometry/AR5_5_07L_W4C4A2_base/AR5_5_07L_W4C4A2_link1/AR5_5_07L_W4C4A2_link2/AR5_5_07L_W4C4A2_link3/AR5_5_07L_W4C4A2_link4/AR5_5_07L_W4C4A2_link5/AR5_5_07L_W4C4A2_link6/AR5_5_07L_W4C4A2_link7/AR5_5_07L_W4C4A2_tcp/lh_rk_adapter/lh_hand_base_link>
            custom rel physics:body1
            append rel physics:body1 = </ar5_o6_left/Geometry/AR5_5_07L_W4C4A2_base/AR5_5_07L_W4C4A2_link1/AR5_5_07L_W4C4A2_link2/AR5_5_07L_W4C4A2_link3/AR5_5_07L_W4C4A2_link4/AR5_5_07L_W4C4A2_link5/AR5_5_07L_W4C4A2_link6/AR5_5_07L_W4C4A2_link7/AR5_5_07L_W4C4A2_tcp/lh_rk_adapter/lh_hand_base_link/lh_middle_proximal>
            point3f physics:localPos0 = (0.00052576, -0.00634, 0.1027)
            point3f physics:localPos1 = (0, 0, 0)
            quatf physics:localRot0 = (1, 0, 0, 0)
            quatf physics:localRot1 = (1, 0, 0, 0)
            float physics:lowerLimit = 0
            float physics:upperLimit = 91.67325
            custom float urdf:limit:effort = 100
        }

        def PhysicsRevoluteJoint "lh_middle_dip" (
            prepend apiSchemas = ["NewtonJointAPI", "NewtonMimicAPI", "PhysicsDriveAPI:angular", "PhysicsJointStateAPI:angular"]
        )
        {
            float drive:angular:physics:maxForce = 100
            float newton:mimicCoef1 = 0.89
            rel newton:mimicJoint = </ar5_o6_left/Physics/lh_middle_mcp_pitch>
            float newton:velocityLimit = 57.29578
            uniform token physics:axis = "Y"
            custom rel physics:body0
            append rel physics:body0 = </ar5_o6_left/Geometry/AR5_5_07L_W4C4A2_base/AR5_5_07L_W4C4A2_link1/AR5_5_07L_W4C4A2_link2/AR5_5_07L_W4C4A2_link3/AR5_5_07L_W4C4A2_link4/AR5_5_07L_W4C4A2_link5/AR5_5_07L_W4C4A2_link6/AR5_5_07L_W4C4A2_link7/AR5_5_07L_W4C4A2_tcp/lh_rk_adapter/lh_hand_base_link/lh_middle_proximal>
            custom rel physics:body1
            append rel physics:body1 = </ar5_o6_left/Geometry/AR5_5_07L_W4C4A2_base/AR5_5_07L_W4C4A2_link1/AR5_5_07L_W4C4A2_link2/AR5_5_07L_W4C4A2_link3/AR5_5_07L_W4C4A2_link4/AR5_5_07L_W4C4A2_link5/AR5_5_07L_W4C4A2_link6/AR5_5_07L_W4C4A2_link7/AR5_5_07L_W4C4A2_tcp/lh_rk_adapter/lh_hand_base_link/lh_middle_proximal/lh_middle_distal>
            point3f physics:localPos0 = (-0.0052516, 0, 0.036625)
            point3f physics:localPos1 = (0, 0, 0)
            quatf physics:localRot0 = (1, 0, 0, 0)
            quatf physics:localRot1 = (1, 0, 0, 0)
            float physics:lowerLimit = 0
            float physics:upperLimit = 81.93297
            custom float urdf:limit:effort = 100
        }

        def PhysicsRevoluteJoint "lh_ring_mcp_pitch" (
            prepend apiSchemas = ["NewtonJointAPI", "PhysicsDriveAPI:angular", "PhysicsJointStateAPI:angular"]
        )
        {
            float drive:angular:physics:maxForce = 100
            float newton:velocityLimit = 57.29578
            uniform token physics:axis = "Y"
            custom rel physics:body0
            append rel physics:body0 = </ar5_o6_left/Geometry/AR5_5_07L_W4C4A2_base/AR5_5_07L_W4C4A2_link1/AR5_5_07L_W4C4A2_link2/AR5_5_07L_W4C4A2_link3/AR5_5_07L_W4C4A2_link4/AR5_5_07L_W4C4A2_link5/AR5_5_07L_W4C4A2_link6/AR5_5_07L_W4C4A2_link7/AR5_5_07L_W4C4A2_tcp/lh_rk_adapter/lh_hand_base_link>
            custom rel physics:body1
            append rel physics:body1 = </ar5_o6_left/Geometry/AR5_5_07L_W4C4A2_base/AR5_5_07L_W4C4A2_link1/AR5_5_07L_W4C4A2_link2/AR5_5_07L_W4C4A2_link3/AR5_5_07L_W4C4A2_link4/AR5_5_07L_W4C4A2_link5/AR5_5_07L_W4C4A2_link6/AR5_5_07L_W4C4A2_link7/AR5_5_07L_W4C4A2_tcp/lh_rk_adapter/lh_hand_base_link/lh_ring_proximal>
            point3f physics:localPos0 = (0.0010258, 0.011135, 0.098767)
            point3f physics:localPos1 = (0, 0, 0)
            quatf physics:localRot0 = (0.99965733, -0.026176646, -1.7347235e-18, 1.6653345e-16)
            quatf physics:localRot1 = (1, 0, 0, 0)
            float physics:lowerLimit = 0
            float physics:upperLimit = 91.67325
            custom float urdf:limit:effort = 100
        }

        def PhysicsRevoluteJoint "lh_ring_dip" (
            prepend apiSchemas = ["NewtonJointAPI", "NewtonMimicAPI", "PhysicsDriveAPI:angular", "PhysicsJointStateAPI:angular"]
        )
        {
            float drive:angular:physics:maxForce = 100
            float newton:mimicCoef1 = 0.89
            rel newton:mimicJoint = </ar5_o6_left/Physics/lh_ring_mcp_pitch>
            float newton:velocityLimit = 57.29578
            uniform token physics:axis = "Y"
            custom rel physics:body0
            append rel physics:body0 = </ar5_o6_left/Geometry/AR5_5_07L_W4C4A2_base/AR5_5_07L_W4C4A2_link1/AR5_5_07L_W4C4A2_link2/AR5_5_07L_W4C4A2_link3/AR5_5_07L_W4C4A2_link4/AR5_5_07L_W4C4A2_link5/AR5_5_07L_W4C4A2_link6/AR5_5_07L_W4C4A2_link7/AR5_5_07L_W4C4A2_tcp/lh_rk_adapter/lh_hand_base_link/lh_ring_proximal>
            custom rel physics:body1
            append rel physics:body1 = </ar5_o6_left/Geometry/AR5_5_07L_W4C4A2_base/AR5_5_07L_W4C4A2_link1/AR5_5_07L_W4C4A2_link2/AR5_5_07L_W4C4A2_link3/AR5_5_07L_W4C4A2_link4/AR5_5_07L_W4C4A2_link5/AR5_5_07L_W4C4A2_link6/AR5_5_07L_W4C4A2_link7/AR5_5_07L_W4C4A2_tcp/lh_rk_adapter/lh_hand_base_link/lh_ring_proximal/lh_ring_distal>
            point3f physics:localPos0 = (-0.0052516, 6.938894e-18, 0.036625)
            point3f physics:localPos1 = (0, 0, 0)
            quatf physics:localRot0 = (1, 0, 0, 0)
            quatf physics:localRot1 = (1, 0, 0, 0)
            float physics:lowerLimit = 0
            float physics:upperLimit = 81.93297
            custom float urdf:limit:effort = 100
        }

        def PhysicsRevoluteJoint "lh_pinky_mcp_pitch" (
            prepend apiSchemas = ["NewtonJointAPI", "PhysicsDriveAPI:angular", "PhysicsJointStateAPI:angular"]
        )
        {
            float drive:angular:physics:maxForce = 100
            float newton:velocityLimit = 57.29578
            uniform token physics:axis = "Y"
            custom rel physics:body0
            append rel physics:body0 = </ar5_o6_left/Geometry/AR5_5_07L_W4C4A2_base/AR5_5_07L_W4C4A2_link1/AR5_5_07L_W4C4A2_link2/AR5_5_07L_W4C4A2_link3/AR5_5_07L_W4C4A2_link4/AR5_5_07L_W4C4A2_link5/AR5_5_07L_W4C4A2_link6/AR5_5_07L_W4C4A2_link7/AR5_5_07L_W4C4A2_tcp/lh_rk_adapter/lh_hand_base_link>
            custom rel physics:body1
            append rel physics:body1 = </ar5_o6_left/Geometry/AR5_5_07L_W4C4A2_base/AR5_5_07L_W4C4A2_link1/AR5_5_07L_W4C4A2_link2/AR5_5_07L_W4C4A2_link3/AR5_5_07L_W4C4A2_link4/AR5_5_07L_W4C4A2_link5/AR5_5_07L_W4C4A2_link6/AR5_5_07L_W4C4A2_link7/AR5_5_07L_W4C4A2_tcp/lh_rk_adapter/lh_hand_base_link/lh_pinky_proximal>
            point3f physics:localPos0 = (0.0024758, 0.028372, 0.092741)
            point3f physics:localPos1 = (0, 0, 0)
            quatf physics:localRot0 = (0.99904823, -0.043619126, -1.0408341e-17, 2.7755576e-16)
            quatf physics:localRot1 = (1, 0, 0, 0)
            float physics:lowerLimit = 0
            float physics:upperLimit = 91.67325
            custom float urdf:limit:effort = 100
        }

        def PhysicsRevoluteJoint "lh_pinky_dip" (
            prepend apiSchemas = ["NewtonJointAPI", "NewtonMimicAPI", "PhysicsDriveAPI:angular", "PhysicsJointStateAPI:angular"]
        )
        {
            float drive:angular:physics:maxForce = 100
            float newton:mimicCoef1 = 0.89
            rel newton:mimicJoint = </ar5_o6_left/Physics/lh_pinky_mcp_pitch>
            float newton:velocityLimit = 57.29578
            uniform token physics:axis = "Y"
            custom rel physics:body0
            append rel physics:body0 = </ar5_o6_left/Geometry/AR5_5_07L_W4C4A2_base/AR5_5_07L_W4C4A2_link1/AR5_5_07L_W4C4A2_link2/AR5_5_07L_W4C4A2_link3/AR5_5_07L_W4C4A2_link4/AR5_5_07L_W4C4A2_link5/AR5_5_07L_W4C4A2_link6/AR5_5_07L_W4C4A2_link7/AR5_5_07L_W4C4A2_tcp/lh_rk_adapter/lh_hand_base_link/lh_pinky_proximal>
            custom rel physics:body1
            append rel physics:body1 = </ar5_o6_left/Geometry/AR5_5_07L_W4C4A2_base/AR5_5_07L_W4C4A2_link1/AR5_5_07L_W4C4A2_link2/AR5_5_07L_W4C4A2_link3/AR5_5_07L_W4C4A2_link4/AR5_5_07L_W4C4A2_link5/AR5_5_07L_W4C4A2_link6/AR5_5_07L_W4C4A2_link7/AR5_5_07L_W4C4A2_tcp/lh_rk_adapter/lh_hand_base_link/lh_pinky_proximal/lh_pinky_distal>
            point3f physics:localPos0 = (-0.0052516, -1.3877788e-17, 0.036625)
            point3f physics:localPos1 = (0, 0, 0)
            quatf physics:localRot0 = (1, 0, 0, 0)
            quatf physics:localRot1 = (1, 0, 0, 0)
            float physics:lowerLimit = 0
            float physics:upperLimit = 81.93297
            custom float urdf:limit:effort = 100
        }

        def PhysicsFixedJoint "root_joint"
        {
            custom rel physics:body0
            append rel physics:body0 = </ar5_o6_left>
            custom rel physics:body1
            append rel physics:body1 = </ar5_o6_left/Geometry/AR5_5_07L_W4C4A2_base>
            point3f physics:localPos0 = (0, 0, 0)
            point3f physics:localPos1 = (0, 0, 0)
            quatf physics:localRot0 = (1, 0, 0, 0)
            quatf physics:localRot1 = (1, 0, 0, 0)
        }

        def PhysicsFixedJoint "AR5_5_07L_W4C4A2_tcp_joint"
        {
            custom rel physics:body0
            append rel physics:body0 = </ar5_o6_left/Geometry/AR5_5_07L_W4C4A2_base/AR5_5_07L_W4C4A2_link1/AR5_5_07L_W4C4A2_link2/AR5_5_07L_W4C4A2_link3/AR5_5_07L_W4C4A2_link4/AR5_5_07L_W4C4A2_link5/AR5_5_07L_W4C4A2_link6/AR5_5_07L_W4C4A2_link7>
            custom rel physics:body1
            append rel physics:body1 = </ar5_o6_left/Geometry/AR5_5_07L_W4C4A2_base/AR5_5_07L_W4C4A2_link1/AR5_5_07L_W4C4A2_link2/AR5_5_07L_W4C4A2_link3/AR5_5_07L_W4C4A2_link4/AR5_5_07L_W4C4A2_link5/AR5_5_07L_W4C4A2_link6/AR5_5_07L_W4C4A2_link7/AR5_5_07L_W4C4A2_tcp>
            point3f physics:localPos0 = (0, 0, 0.097)
            point3f physics:localPos1 = (0, 0, 0)
            quatf physics:localRot0 = (1, 0, 0, 0)
            quatf physics:localRot1 = (1, 0, 0, 0)
        }

        def PhysicsFixedJoint "rk_adapter_joint"
        {
            custom rel physics:body0
            append rel physics:body0 = </ar5_o6_left/Geometry/AR5_5_07L_W4C4A2_base/AR5_5_07L_W4C4A2_link1/AR5_5_07L_W4C4A2_link2/AR5_5_07L_W4C4A2_link3/AR5_5_07L_W4C4A2_link4/AR5_5_07L_W4C4A2_link5/AR5_5_07L_W4C4A2_link6/AR5_5_07L_W4C4A2_link7/AR5_5_07L_W4C4A2_tcp>
            custom rel physics:body1
            append rel physics:body1 = </ar5_o6_left/Geometry/AR5_5_07L_W4C4A2_base/AR5_5_07L_W4C4A2_link1/AR5_5_07L_W4C4A2_link2/AR5_5_07L_W4C4A2_link3/AR5_5_07L_W4C4A2_link4/AR5_5_07L_W4C4A2_link5/AR5_5_07L_W4C4A2_link6/AR5_5_07L_W4C4A2_link7/AR5_5_07L_W4C4A2_tcp/lh_rk_adapter>
            point3f physics:localPos0 = (0, 0, 0)
            point3f physics:localPos1 = (0, 0, 0)
            quatf physics:localRot0 = (1, 0, 0, 0)
            quatf physics:localRot1 = (1, 0, 0, 0)
        }

        def PhysicsFixedJoint "hand_mount_joint"
        {
            custom rel physics:body0
            append rel physics:body0 = </ar5_o6_left/Geometry/AR5_5_07L_W4C4A2_base/AR5_5_07L_W4C4A2_link1/AR5_5_07L_W4C4A2_link2/AR5_5_07L_W4C4A2_link3/AR5_5_07L_W4C4A2_link4/AR5_5_07L_W4C4A2_link5/AR5_5_07L_W4C4A2_link6/AR5_5_07L_W4C4A2_link7/AR5_5_07L_W4C4A2_tcp/lh_rk_adapter>
            custom rel physics:body1
            append rel physics:body1 = </ar5_o6_left/Geometry/AR5_5_07L_W4C4A2_base/AR5_5_07L_W4C4A2_link1/AR5_5_07L_W4C4A2_link2/AR5_5_07L_W4C4A2_link3/AR5_5_07L_W4C4A2_link4/AR5_5_07L_W4C4A2_link5/AR5_5_07L_W4C4A2_link6/AR5_5_07L_W4C4A2_link7/AR5_5_07L_W4C4A2_tcp/lh_rk_adapter/lh_hand_base_link>
            point3f physics:localPos0 = (0, 0, 0.0215)
            point3f physics:localPos1 = (0, 0, 0)
            quatf physics:localRot0 = (0.70710546, 0, 0, 0.7071081)
            quatf physics:localRot1 = (1, 0, 0, 0)
        }
    }
}

