#usda 1.0
(
    customLayerData = {
        string creator = "URDF USD Converter v0.1.2"
    }
    defaultPrim = "ar5_o6_left"
    doc = """Generated from Composed Stage of root layer /tmp/tmpp2z9k0xi/ar5_o6_left.usdc


Generated from Composed Stage of root layer /tmp/urdf_import_ar5_o6_left_combined_piucyohi/usdex_ar5_o6_left_combined/ar5_o6_left.usdc


Generated from Composed Stage of root layer /tmp/urdf_import_ar5_o6_left_combined_piucyohi/temp_ar5_o6_left_combined/ar5_o6_left_combined.usd


Generated from Composed Stage of root layer /home/ryan/AstraTwin/assets/robots/ar5_l6/usd/urdf_output/ar5_o6_left_combined/payloads/base.usd
"""
    kilogramsPerUnit = 1
    metersPerUnit = 1
    upAxis = "Z"
)

over "ar5_o6_left"
{
    over "Geometry" (
        prepend apiSchemas = ["PhysicsArticulationRootAPI", "NewtonArticulationRootAPI"]
    )
    {
        bool newton:selfCollisionEnabled = 0

        over "world" (
            prepend apiSchemas = ["PhysicsRigidBodyAPI"]
        )
        {
            over "AR5_5_07L_W4C4A2_base" (
                prepend apiSchemas = ["PhysicsRigidBodyAPI"]
            )
            {
                over "AR5_5_07L_W4C4A2_link1" (
                    prepend apiSchemas = ["PhysicsRigidBodyAPI", "PhysicsMassAPI"]
                )
                {
                    point3f physics:centerOfMass = (0.000001, -0.000621, 0.167909)
                    float3 physics:diagonalInertia = (0.0043290933, 0.004523434, 0.0049367426)
                    float physics:mass = 2.683
                    quatf physics:principalAxes = (0.7059521, -0.000991955, 0.7082567, -0.0017430714)

                    over "AR5_5_07L_W4C4A2_link2" (
                        prepend apiSchemas = ["PhysicsRigidBodyAPI", "PhysicsMassAPI"]
                    )
                    {
                        point3f physics:centerOfMass = (-0.00002, -0.003081, 0.102986)
                        float3 physics:diagonalInertia = (0.0042330353, 0.010052681, 0.011519064)
                        float physics:mass = 2.3
                        quatf physics:principalAxes = (0.70528495, -0.051328573, 0.70527977, 0.05018922)

                        over "AR5_5_07L_W4C4A2_link3" (
                            prepend apiSchemas = ["PhysicsRigidBodyAPI", "PhysicsMassAPI"]
                        )
                        {
                            point3f physics:centerOfMass = (0.007097, -0.000659, -0.016531)
                            float3 physics:diagonalInertia = (0.0026174302, 0.0047044475, 0.0052469126)
                            float physics:mass = 1.862
                            quatf physics:principalAxes = (0.6566016, -0.015937783, 0.7540411, -0.0065127113)

                            over "AR5_5_07L_W4C4A2_link4" (
                                prepend apiSchemas = ["PhysicsRigidBodyAPI", "PhysicsMassAPI"]
                            )
                            {
                                point3f physics:centerOfMass = (-0.007826, -0.004207, 0.073404)
                                float3 physics:diagonalInertia = (0.0017136007, 0.0032319261, 0.003920583)
                                float physics:mass = 1.234
                                quatf physics:principalAxes = (0.72784996, -0.065668344, 0.66372955, 0.15932727)

                                over "AR5_5_07L_W4C4A2_link5" (
                                    prepend apiSchemas = ["PhysicsRigidBodyAPI", "PhysicsMassAPI"]
                                )
                                {
                                    point3f physics:centerOfMass = (0.000284, 0.001651, -0.084133)
                                    float3 physics:diagonalInertia = (0.0018203178, 0.002211393, 0.0028164391)
                                    float physics:mass = 1.329
                                    quatf physics:principalAxes = (0.70095116, -0.029418865, 0.7125586, 0.007885511)

                                    over "AR5_5_07L_W4C4A2_link6" (
                                        prepend apiSchemas = ["PhysicsRigidBodyAPI", "PhysicsMassAPI"]
                                    )
                                    {
                                        point3f physics:centerOfMass = (0.005406, 0.000612, -0.000039)
                                        float3 physics:diagonalInertia = (0.00072073744, 0.0008515618, 0.00090206077)
                                        float physics:mass = 0.93
                                        quatf physics:principalAxes = (0.9999504, 0.0045993496, -0.0029616887, -0.00831933)

                                        over "AR5_5_07L_W4C4A2_link7" (
                                            prepend apiSchemas = ["PhysicsRigidBodyAPI", "PhysicsMassAPI"]
                                        )
                                        {
                                            point3f physics:centerOfMass = (-0.00277, 0.000316, 0.054881)
                                            float3 physics:diagonalInertia = (0.0004411469, 0.00053711183, 0.0007913413)
                                            float physics:mass = 0.33
                                            quatf physics:principalAxes = (0.37943313, 0.37595928, 0.59558064, 0.5999741)

                                            over "AR5_5_07L_W4C4A2_tcp" (
                                                prepend apiSchemas = ["PhysicsRigidBodyAPI", "PhysicsMassAPI"]
                                            )
                                            {
                                                float3 physics:diagonalInertia = (0.000001, 0.000001, 0.000001)
                                                float physics:mass = 0
                                                quatf physics:principalAxes = (1, 0, 0, 0)

                                                over "lh_rk_adapter" (
                                                    prepend apiSchemas = ["PhysicsRigidBodyAPI", "PhysicsMassAPI"]
                                                )
                                                {
                                                    point3f physics:centerOfMass = (0, 0, 0)
                                                    float3 physics:diagonalInertia = (0.000001, 0.000001, 0.000001)
                                                    float physics:mass = 0.05
                                                    quatf physics:principalAxes = (1, 0, 0, 0)

                                                    over "lh_hand_base_link" (
                                                        prepend apiSchemas = ["PhysicsRigidBodyAPI", "PhysicsMassAPI"]
                                                    )
                                                    {
                                                        point3f physics:centerOfMass = (-0.0015778857, -0.00034876727, 0.053845223)
                                                        float3 physics:diagonalInertia = (0.000022785269, 0.000033403405, 0.00005226303)
                                                        float physics:mass = 0.067293525
                                                        quatf physics:principalAxes = (0.7112235, 0.0196564, 0.7019677, -0.031875554)

                                                        over "lh_thumb_metacarpals_base2" (
                                                            prepend apiSchemas = ["PhysicsRigidBodyAPI", "PhysicsMassAPI"]
                                                        )
                                                        {
                                                            point3f physics:centerOfMass = (0.0016280068, -0.0027668017, -0.0018423444)
                                                            float3 physics:diagonalInertia = (2.804746e-8, 4.6153662e-8, 5.5545172e-8)
                                                            float physics:mass = 0.001385883
                                                            quatf physics:principalAxes = (0.71651435, 0.1483551, 0.6348633, 0.2480857)

                                                            over "lh_thumb_metacarpals" (
                                                                prepend apiSchemas = ["PhysicsRigidBodyAPI", "PhysicsMassAPI"]
                                                            )
                                                            {
                                                                point3f physics:centerOfMass = (0.00004248162, 0.000017418392, 0.022834163)
                                                                float3 physics:diagonalInertia = (8.782631e-7, 0.0000011610094, 0.0000017675784)
                                                                float physics:mass = 0.012338159
                                                                quatf physics:principalAxes = (0.602796, 0.6027095, 0.37003604, 0.3693936)

                                                                over "lh_thumb_distal" (
                                                                    prepend apiSchemas = ["PhysicsRigidBodyAPI", "PhysicsMassAPI"]
                                                                )
                                                                {
                                                                    point3f physics:centerOfMass = (-0.004137257, -5.907045e-8, 0.023011401)
                                                                    float3 physics:diagonalInertia = (2.7226213e-7, 0.0000012248909, 0.0000013107585)
                                                                    float physics:mass = 0.0076333294
                                                                    quatf physics:principalAxes = (0.7312508, 0.000050898147, 0.68210864, 0.000050140923)
                                                                }
                                                            }
                                                        }

                                                        over "lh_index_proximal" (
                                                            prepend apiSchemas = ["PhysicsRigidBodyAPI", "PhysicsMassAPI"]
                                                        )
                                                        {
                                                            point3f physics:centerOfMass = (-0.0020865656, 0.0000025383872, 0.017273495)
                                                            float3 physics:diagonalInertia = (7.583063e-8, 2.7291307e-7, 2.757608e-7)
                                                            float physics:mass = 0.0025317466
                                                            quatf physics:principalAxes = (0.78133, 0.007643632, 0.6240355, 0.0066868095)

                                                            over "lh_index_distal" (
                                                                prepend apiSchemas = ["PhysicsRigidBodyAPI", "PhysicsMassAPI"]
                                                            )
                                                            {
                                                                point3f physics:centerOfMass = (0.0065898662, 0.0000051385564, 0.01943936)
                                                                float3 physics:diagonalInertia = (7.204472e-8, 3.6532765e-7, 3.7459085e-7)
                                                                float physics:mass = 0.003769511
                                                                quatf physics:principalAxes = (0.54057455, 0.0024824692, 0.84128624, 0.0032386186)
                                                            }
                                                        }

                                                        over "lh_middle_proximal" (
                                                            prepend apiSchemas = ["PhysicsRigidBodyAPI", "PhysicsMassAPI"]
                                                        )
                                                        {
                                                            point3f physics:centerOfMass = (-0.0020866066, 0.0000025691818, 0.0172735)
                                                            float3 physics:diagonalInertia = (7.5831146e-8, 2.7291338e-7, 2.757611e-7)
                                                            float physics:mass = 0.0025317736
                                                            quatf physics:principalAxes = (0.7813296, 0.0076768305, 0.62403536, 0.0067128767)

                                                            over "lh_middle_distal" (
                                                                prepend apiSchemas = ["PhysicsRigidBodyAPI", "PhysicsMassAPI"]
                                                            )
                                                            {
                                                                point3f physics:centerOfMass = (0.0065898653, 0.0000051086295, 0.019439332)
                                                                float3 physics:diagonalInertia = (7.204529e-8, 3.6532907e-7, 3.745922e-7)
                                                                float physics:mass = 0.003769528
                                                                quatf physics:principalAxes = (0.5405751, 0.0024706838, 0.84128594, 0.003223407)
                                                            }
                                                        }

                                                        over "lh_ring_proximal" (
                                                            prepend apiSchemas = ["PhysicsRigidBodyAPI", "PhysicsMassAPI"]
                                                        )
                                                        {
                                                            point3f physics:centerOfMass = (-0.0020866792, 0.0000026300042, 0.017273493)
                                                            float3 physics:diagonalInertia = (7.5832226e-8, 2.7291406e-7, 2.7576172e-7)
                                                            float physics:mass = 0.0025318223
                                                            quatf physics:principalAxes = (0.78132856, 0.0077359965, 0.62403536, 0.0067587425)

                                                            over "lh_ring_distal" (
                                                                prepend apiSchemas = ["PhysicsRigidBodyAPI", "PhysicsMassAPI"]
                                                            )
                                                            {
                                                                point3f physics:centerOfMass = (0.0065898667, 0.000005058835, 0.019439397)
                                                                float3 physics:diagonalInertia = (7.20441e-8, 3.6532612e-7, 3.7458938e-7)
                                                                float physics:mass = 0.003769496
                                                                quatf physics:principalAxes = (0.54057366, 0.002450255, 0.841287, 0.0031969126)
                                                            }
                                                        }

                                                        over "lh_pinky_proximal" (
                                                            prepend apiSchemas = ["PhysicsRigidBodyAPI", "PhysicsMassAPI"]
                                                        )
                                                        {
                                                            point3f physics:centerOfMass = (-0.002086736, 0.0000026806224, 0.017273486)
                                                            float3 physics:diagonalInertia = (7.5833086e-8, 2.7291458e-7, 2.7576223e-7)
                                                            float physics:mass = 0.00253186
                                                            quatf physics:principalAxes = (0.78132784, 0.007784023, 0.6240353, 0.0067960154)

                                                            over "lh_pinky_distal" (
                                                                prepend apiSchemas = ["PhysicsRigidBodyAPI", "PhysicsMassAPI"]
                                                            )
                                                            {
                                                                point3f physics:centerOfMass = (0.006589876, 0.0000050308754, 0.01943945)
                                                                float3 physics:diagonalInertia = (7.2043434e-8, 3.6532472e-7, 3.7458818e-7)
                                                                float physics:mass = 0.0037694806
                                                                quatf physics:principalAxes = (0.54057276, 0.0024336982, 0.8412878, 0.0031746821)
                                                            }
                                                        }
                                                    }
                                                }

                                                over "box_1" (
                                                    prepend apiSchemas = ["NewtonCollisionAPI"]
                                                )
                                                {
                                                }
                                            }
                                        }
                                    }
                                }
                            }
                        }
                    }
                }
            }

            over "box_1" (
                prepend apiSchemas = ["NewtonCollisionAPI"]
            )
            {
            }
        }
    }

    over "Physics"
    {
        def PhysicsRevoluteJoint "AR5_5_07L_W4C4A2_joint_1" (
            prepend apiSchemas = ["PhysicsDriveAPI:angular", "PhysicsJointStateAPI:angular"]
        )
        {
            float drive:angular:physics:damping = 1.7453293
            float drive:angular:physics:maxForce = 108
            float drive:angular:physics:stiffness = 17.453293
            uniform token physics:axis = "Z"
            custom rel physics:body0
            prepend rel physics:body0 = </ar5_o6_left/Geometry/world/AR5_5_07L_W4C4A2_base>
            custom rel physics:body1
            prepend rel physics:body1 = </ar5_o6_left/Geometry/world/AR5_5_07L_W4C4A2_base/AR5_5_07L_W4C4A2_link1>
            point3f physics:localPos0 = (0, 0, 0)
            point3f physics:localPos1 = (0, 0, 0)
            quatf physics:localRot0 = (1, 0, 0, 0)
            quatf physics:localRot1 = (1, 0, 0, 0)
            float physics:lowerLimit = -178.0008
            float physics:upperLimit = 178.0008
            custom float urdf:limit:effort = 108
            custom float urdf:limit:velocity = 3.0543263
        }

        def PhysicsRevoluteJoint "AR5_5_07L_W4C4A2_joint_2" (
            prepend apiSchemas = ["PhysicsDriveAPI:angular", "PhysicsJointStateAPI:angular"]
        )
        {
            float drive:angular:physics:damping = 1.7453293
            float drive:angular:physics:maxForce = 108
            float drive:angular:physics:stiffness = 17.453293
            uniform token physics:axis = "Y"
            custom rel physics:body0
            prepend rel physics:body0 = </ar5_o6_left/Geometry/world/AR5_5_07L_W4C4A2_base/AR5_5_07L_W4C4A2_link1>
            custom rel physics:body1
            prepend rel physics:body1 = </ar5_o6_left/Geometry/world/AR5_5_07L_W4C4A2_base/AR5_5_07L_W4C4A2_link1/AR5_5_07L_W4C4A2_link2>
            point3f physics:localPos0 = (0, 0, 0.1745)
            point3f physics:localPos1 = (0, 0, 0)
            quatf physics:localRot0 = (1, 0, 0, 0)
            quatf physics:localRot1 = (1, 0, 0, 0)
            float physics:lowerLimit = -120.00028
            float physics:upperLimit = 120.00028
            custom float urdf:limit:effort = 108
            custom float urdf:limit:velocity = 3.0543263
        }

        def PhysicsRevoluteJoint "AR5_5_07L_W4C4A2_joint_3" (
            prepend apiSchemas = ["PhysicsDriveAPI:angular", "PhysicsJointStateAPI:angular"]
        )
        {
            float drive:angular:physics:damping = 1.7453293
            float drive:angular:physics:maxForce = 66
            float drive:angular:physics:stiffness = 17.453293
            uniform token physics:axis = "Z"
            custom rel physics:body0
            prepend rel physics:body0 = </ar5_o6_left/Geometry/world/AR5_5_07L_W4C4A2_base/AR5_5_07L_W4C4A2_link1/AR5_5_07L_W4C4A2_link2>
            custom rel physics:body1
            prepend rel physics:body1 = </ar5_o6_left/Geometry/world/AR5_5_07L_W4C4A2_base/AR5_5_07L_W4C4A2_link1/AR5_5_07L_W4C4A2_link2/AR5_5_07L_W4C4A2_link3>
            point3f physics:localPos0 = (0, 0, 0.314)
            point3f physics:localPos1 = (0, 0, 0)
            quatf physics:localRot0 = (1, 0, 0, 0)
            quatf physics:localRot1 = (1, 0, 0, 0)
            float physics:lowerLimit = -178.0008
            float physics:upperLimit = 178.0008
            custom float urdf:limit:effort = 66
            custom float urdf:limit:velocity = 4.712389
        }

        def PhysicsRevoluteJoint "AR5_5_07L_W4C4A2_joint_4" (
            prepend apiSchemas = ["PhysicsDriveAPI:angular", "PhysicsJointStateAPI:angular"]
        )
        {
            float drive:angular:physics:damping = 1.7453293
            float drive:angular:physics:maxForce = 66
            float drive:angular:physics:stiffness = 17.453293
            uniform token physics:axis = "Y"
            custom rel physics:body0
            prepend rel physics:body0 = </ar5_o6_left/Geometry/world/AR5_5_07L_W4C4A2_base/AR5_5_07L_W4C4A2_link1/AR5_5_07L_W4C4A2_link2/AR5_5_07L_W4C4A2_link3>
            custom rel physics:body1
            prepend rel physics:body1 = </ar5_o6_left/Geometry/world/AR5_5_07L_W4C4A2_base/AR5_5_07L_W4C4A2_link1/AR5_5_07L_W4C4A2_link2/AR5_5_07L_W4C4A2_link3/AR5_5_07L_W4C4A2_link4>
            point3f physics:localPos0 = (0.01, 0, 0)
            point3f physics:localPos1 = (0, 0, 0)
            quatf physics:localRot0 = (1, 0, 0, 0)
            quatf physics:localRot1 = (1, 0, 0, 0)
            float physics:lowerLimit = -60.00014
            float physics:upperLimit = 144.99843
            custom float urdf:limit:effort = 66
            custom float urdf:limit:velocity = 5.2359877
        }

        def PhysicsRevoluteJoint "AR5_5_07L_W4C4A2_joint_5" (
            prepend apiSchemas = ["PhysicsDriveAPI:angular", "PhysicsJointStateAPI:angular"]
        )
        {
            float drive:angular:physics:damping = 1.7453293
            float drive:angular:physics:maxForce = 19
            float drive:angular:physics:stiffness = 17.453293
            uniform token physics:axis = "Z"
            custom rel physics:body0
            prepend rel physics:body0 = </ar5_o6_left/Geometry/world/AR5_5_07L_W4C4A2_base/AR5_5_07L_W4C4A2_link1/AR5_5_07L_W4C4A2_link2/AR5_5_07L_W4C4A2_link3/AR5_5_07L_W4C4A2_link4>
            custom rel physics:body1
            prepend rel physics:body1 = </ar5_o6_left/Geometry/world/AR5_5_07L_W4C4A2_base/AR5_5_07L_W4C4A2_link1/AR5_5_07L_W4C4A2_link2/AR5_5_07L_W4C4A2_link3/AR5_5_07L_W4C4A2_link4/AR5_5_07L_W4C4A2_link5>
            point3f physics:localPos0 = (-0.01, 0, 0.272)
            point3f physics:localPos1 = (0, 0, 0)
            quatf physics:localRot0 = (1, 0, 0, 0)
            quatf physics:localRot1 = (1, 0, 0, 0)
            float physics:lowerLimit = -178.0008
            float physics:upperLimit = 178.0008
            custom float urdf:limit:effort = 19
            custom float urdf:limit:velocity = 4.1887903
        }

        def PhysicsRevoluteJoint "AR5_5_07L_W4C4A2_joint_6" (
            prepend apiSchemas = ["PhysicsDriveAPI:angular", "PhysicsJointStateAPI:angular"]
        )
        {
            float drive:angular:physics:damping = 1.7453293
            float drive:angular:physics:maxForce = 19
            float drive:angular:physics:stiffness = 17.453293
            uniform token physics:axis = "Y"
            custom rel physics:body0
            prepend rel physics:body0 = </ar5_o6_left/Geometry/world/AR5_5_07L_W4C4A2_base/AR5_5_07L_W4C4A2_link1/AR5_5_07L_W4C4A2_link2/AR5_5_07L_W4C4A2_link3/AR5_5_07L_W4C4A2_link4/AR5_5_07L_W4C4A2_link5>
            custom rel physics:body1
            prepend rel physics:body1 = </ar5_o6_left/Geometry/world/AR5_5_07L_W4C4A2_base/AR5_5_07L_W4C4A2_link1/AR5_5_07L_W4C4A2_link2/AR5_5_07L_W4C4A2_link3/AR5_5_07L_W4C4A2_link4/AR5_5_07L_W4C4A2_link5/AR5_5_07L_W4C4A2_link6>
            point3f physics:localPos0 = (0, 0, 0)
            point3f physics:localPos1 = (0, 0, 0)
            quatf physics:localRot0 = (1, 0, 0, 0)
            quatf physics:localRot1 = (1, 0, 0, 0)
            float physics:lowerLimit = -60.00014
            float physics:upperLimit = 60.00014
            custom float urdf:limit:effort = 19
            custom float urdf:limit:velocity = 4.1887903
        }

        def PhysicsRevoluteJoint "AR5_5_07L_W4C4A2_joint_7" (
            prepend apiSchemas = ["PhysicsDriveAPI:angular", "PhysicsJointStateAPI:angular"]
        )
        {
            float drive:angular:physics:damping = 1.7453293
            float drive:angular:physics:maxForce = 19
            float drive:angular:physics:stiffness = 17.453293
            uniform token physics:axis = "X"
            custom rel physics:body0
            prepend rel physics:body0 = </ar5_o6_left/Geometry/world/AR5_5_07L_W4C4A2_base/AR5_5_07L_W4C4A2_link1/AR5_5_07L_W4C4A2_link2/AR5_5_07L_W4C4A2_link3/AR5_5_07L_W4C4A2_link4/AR5_5_07L_W4C4A2_link5/AR5_5_07L_W4C4A2_link6>
            custom rel physics:body1
            prepend rel physics:body1 = </ar5_o6_left/Geometry/world/AR5_5_07L_W4C4A2_base/AR5_5_07L_W4C4A2_link1/AR5_5_07L_W4C4A2_link2/AR5_5_07L_W4C4A2_link3/AR5_5_07L_W4C4A2_link4/AR5_5_07L_W4C4A2_link5/AR5_5_07L_W4C4A2_link6/AR5_5_07L_W4C4A2_link7>
            point3f physics:localPos0 = (0, 0, 0)
            point3f physics:localPos1 = (0, 0, 0)
            quatf physics:localRot0 = (1, 0, 0, 0)
            quatf physics:localRot1 = (1, 0, 0, 0)
            float physics:lowerLimit = -60.00014
            float physics:upperLimit = 60.00014
            custom float urdf:limit:effort = 19
            custom float urdf:limit:velocity = 4.1887903
        }

        def PhysicsRevoluteJoint "lh_thumb_cmc_yaw" (
            prepend apiSchemas = ["PhysicsDriveAPI:angular", "PhysicsJointStateAPI:angular"]
        )
        {
            float drive:angular:physics:damping = 1.7453293
            float drive:angular:physics:maxForce = 100
            float drive:angular:physics:stiffness = 17.453293
            uniform token physics:axis = "Z"
            custom rel physics:body0
            prepend rel physics:body0 = </ar5_o6_left/Geometry/world/AR5_5_07L_W4C4A2_base/AR5_5_07L_W4C4A2_link1/AR5_5_07L_W4C4A2_link2/AR5_5_07L_W4C4A2_link3/AR5_5_07L_W4C4A2_link4/AR5_5_07L_W4C4A2_link5/AR5_5_07L_W4C4A2_link6/AR5_5_07L_W4C4A2_link7/AR5_5_07L_W4C4A2_tcp/lh_rk_adapter/lh_hand_base_link>
            custom rel physics:body1
            prepend rel physics:body1 = </ar5_o6_left/Geometry/world/AR5_5_07L_W4C4A2_base/AR5_5_07L_W4C4A2_link1/AR5_5_07L_W4C4A2_link2/AR5_5_07L_W4C4A2_link3/AR5_5_07L_W4C4A2_link4/AR5_5_07L_W4C4A2_link5/AR5_5_07L_W4C4A2_link6/AR5_5_07L_W4C4A2_link7/AR5_5_07L_W4C4A2_tcp/lh_rk_adapter/lh_hand_base_link/lh_thumb_metacarpals_base2>
            point3f physics:localPos0 = (0.011508, -0.022975, 0.032794)
            point3f physics:localPos1 = (0, 0, 0)
            quatf physics:localRot0 = (1, 0, 0, 0)
            quatf physics:localRot1 = (1, 0, 0, 0)
            float physics:lowerLimit = 0
            float physics:upperLimit = 74.48451
            custom float urdf:limit:effort = 100
            custom float urdf:limit:velocity = 1
        }

        def PhysicsRevoluteJoint "lh_thumb_cmc_pitch" (
            prepend apiSchemas = ["PhysicsDriveAPI:angular", "PhysicsJointStateAPI:angular"]
        )
        {
            float drive:angular:physics:damping = 1.7453293
            float drive:angular:physics:maxForce = 100
            float drive:angular:physics:stiffness = 17.453293
            uniform token physics:axis = "Y"
            custom rel physics:body0
            prepend rel physics:body0 = </ar5_o6_left/Geometry/world/AR5_5_07L_W4C4A2_base/AR5_5_07L_W4C4A2_link1/AR5_5_07L_W4C4A2_link2/AR5_5_07L_W4C4A2_link3/AR5_5_07L_W4C4A2_link4/AR5_5_07L_W4C4A2_link5/AR5_5_07L_W4C4A2_link6/AR5_5_07L_W4C4A2_link7/AR5_5_07L_W4C4A2_tcp/lh_rk_adapter/lh_hand_base_link/lh_thumb_metacarpals_base2>
            custom rel physics:body1
            prepend rel physics:body1 = </ar5_o6_left/Geometry/world/AR5_5_07L_W4C4A2_base/AR5_5_07L_W4C4A2_link1/AR5_5_07L_W4C4A2_link2/AR5_5_07L_W4C4A2_link3/AR5_5_07L_W4C4A2_link4/AR5_5_07L_W4C4A2_link5/AR5_5_07L_W4C4A2_link6/AR5_5_07L_W4C4A2_link7/AR5_5_07L_W4C4A2_tcp/lh_rk_adapter/lh_hand_base_link/lh_thumb_metacarpals_base2/lh_thumb_metacarpals>
            point3f physics:localPos0 = (0.0061649, -0.010678, -0.004891)
            point3f physics:localPos1 = (0, 0, 0)
            quatf physics:localRot0 = (0.41919965, 0.47202873, -0.27252436, 0.7260792)
            quatf physics:localRot1 = (1, 0, 0, 0)
            float physics:lowerLimit = 0
            float physics:upperLimit = 33.231552
            custom float urdf:limit:effort = 100
            custom float urdf:limit:velocity = 1
        }

        def PhysicsRevoluteJoint "lh_thumb_ip" (
            prepend apiSchemas = ["NewtonMimicAPI", "PhysicsDriveAPI:angular", "PhysicsJointStateAPI:angular"]
        )
        {
            float drive:angular:physics:damping = 1.7453293
            float drive:angular:physics:maxForce = 100
            float drive:angular:physics:stiffness = 17.453293
            float newton:mimicCoef1 = 2.29
            rel newton:mimicJoint = </ar5_o6_left/Physics/lh_thumb_cmc_pitch>
            uniform token physics:axis = "Y"
            custom rel physics:body0
            prepend rel physics:body0 = </ar5_o6_left/Geometry/world/AR5_5_07L_W4C4A2_base/AR5_5_07L_W4C4A2_link1/AR5_5_07L_W4C4A2_link2/AR5_5_07L_W4C4A2_link3/AR5_5_07L_W4C4A2_link4/AR5_5_07L_W4C4A2_link5/AR5_5_07L_W4C4A2_link6/AR5_5_07L_W4C4A2_link7/AR5_5_07L_W4C4A2_tcp/lh_rk_adapter/lh_hand_base_link/lh_thumb_metacarpals_base2/lh_thumb_metacarpals>
            custom rel physics:body1
            prepend rel physics:body1 = </ar5_o6_left/Geometry/world/AR5_5_07L_W4C4A2_base/AR5_5_07L_W4C4A2_link1/AR5_5_07L_W4C4A2_link2/AR5_5_07L_W4C4A2_link3/AR5_5_07L_W4C4A2_link4/AR5_5_07L_W4C4A2_link5/AR5_5_07L_W4C4A2_link6/AR5_5_07L_W4C4A2_link7/AR5_5_07L_W4C4A2_tcp/lh_rk_adapter/lh_hand_base_link/lh_thumb_metacarpals_base2/lh_thumb_metacarpals/lh_thumb_distal>
            point3f physics:localPos0 = (0.0037776, 7.372575e-18, 0.045368)
            point3f physics:localPos1 = (0, 0, 0)
            quatf physics:localRot0 = (1, 0, 0, 0)
            quatf physics:localRot1 = (1, 0, 0, 0)
            float physics:lowerLimit = 0
            float physics:upperLimit = 61.87944
            custom float urdf:limit:effort = 100
            custom float urdf:limit:velocity = 1
        }

        def PhysicsRevoluteJoint "lh_index_mcp_pitch" (
            prepend apiSchemas = ["PhysicsDriveAPI:angular", "PhysicsJointStateAPI:angular"]
        )
        {
            float drive:angular:physics:damping = 1.7453293
            float drive:angular:physics:maxForce = 100
            float drive:angular:physics:stiffness = 17.453293
            uniform token physics:axis = "Y"
            custom rel physics:body0
            prepend rel physics:body0 = </ar5_o6_left/Geometry/world/AR5_5_07L_W4C4A2_base/AR5_5_07L_W4C4A2_link1/AR5_5_07L_W4C4A2_link2/AR5_5_07L_W4C4A2_link3/AR5_5_07L_W4C4A2_link4/AR5_5_07L_W4C4A2_link5/AR5_5_07L_W4C4A2_link6/AR5_5_07L_W4C4A2_link7/AR5_5_07L_W4C4A2_tcp/lh_rk_adapter/lh_hand_base_link>
            custom rel physics:body1
            prepend rel physics:body1 = </ar5_o6_left/Geometry/world/AR5_5_07L_W4C4A2_base/AR5_5_07L_W4C4A2_link1/AR5_5_07L_W4C4A2_link2/AR5_5_07L_W4C4A2_link3/AR5_5_07L_W4C4A2_link4/AR5_5_07L_W4C4A2_link5/AR5_5_07L_W4C4A2_link6/AR5_5_07L_W4C4A2_link7/AR5_5_07L_W4C4A2_tcp/lh_rk_adapter/lh_hand_base_link/lh_index_proximal>
            point3f physics:localPos0 = (0.0024758, -0.02419, 0.098779)
            point3f physics:localPos1 = (0, 0, 0)
            quatf physics:localRot0 = (0.99965733, 0.026176646, 0, 0)
            quatf physics:localRot1 = (1, 0, 0, 0)
            float physics:lowerLimit = 0
            float physics:upperLimit = 91.67325
            custom float urdf:limit:effort = 100
            custom float urdf:limit:velocity = 1
        }

        def PhysicsRevoluteJoint "lh_index_dip" (
            prepend apiSchemas = ["NewtonMimicAPI", "PhysicsDriveAPI:angular", "PhysicsJointStateAPI:angular"]
        )
        {
            float drive:angular:physics:damping = 1.7453293
            float drive:angular:physics:maxForce = 100
            float drive:angular:physics:stiffness = 17.453293
            float newton:mimicCoef1 = 0.89
            rel newton:mimicJoint = </ar5_o6_left/Physics/lh_index_mcp_pitch>
            uniform token physics:axis = "Y"
            custom rel physics:body0
            prepend rel physics:body0 = </ar5_o6_left/Geometry/world/AR5_5_07L_W4C4A2_base/AR5_5_07L_W4C4A2_link1/AR5_5_07L_W4C4A2_link2/AR5_5_07L_W4C4A2_link3/AR5_5_07L_W4C4A2_link4/AR5_5_07L_W4C4A2_link5/AR5_5_07L_W4C4A2_link6/AR5_5_07L_W4C4A2_link7/AR5_5_07L_W4C4A2_tcp/lh_rk_adapter/lh_hand_base_link/lh_index_proximal>
            custom rel physics:body1
            prepend rel physics:body1 = </ar5_o6_left/Geometry/world/AR5_5_07L_W4C4A2_base/AR5_5_07L_W4C4A2_link1/AR5_5_07L_W4C4A2_link2/AR5_5_07L_W4C4A2_link3/AR5_5_07L_W4C4A2_link4/AR5_5_07L_W4C4A2_link5/AR5_5_07L_W4C4A2_link6/AR5_5_07L_W4C4A2_link7/AR5_5_07L_W4C4A2_tcp/lh_rk_adapter/lh_hand_base_link/lh_index_proximal/lh_index_distal>
            point3f physics:localPos0 = (-0.0052516, 0, 0.036625)
            point3f physics:localPos1 = (0, 0, 0)
            quatf physics:localRot0 = (1, 0, 0, 0)
            quatf physics:localRot1 = (1, 0, 0, 0)
            float physics:lowerLimit = 0
            float physics:upperLimit = 81.93297
            custom float urdf:limit:effort = 100
            custom float urdf:limit:velocity = 1
        }

        def PhysicsRevoluteJoint "lh_middle_mcp_pitch" (
            prepend apiSchemas = ["PhysicsDriveAPI:angular", "PhysicsJointStateAPI:angular"]
        )
        {
            float drive:angular:physics:damping = 1.7453293
            float drive:angular:physics:maxForce = 100
            float drive:angular:physics:stiffness = 17.453293
            uniform token physics:axis = "Y"
            custom rel physics:body0
            prepend rel physics:body0 = </ar5_o6_left/Geometry/world/AR5_5_07L_W4C4A2_base/AR5_5_07L_W4C4A2_link1/AR5_5_07L_W4C4A2_link2/AR5_5_07L_W4C4A2_link3/AR5_5_07L_W4C4A2_link4/AR5_5_07L_W4C4A2_link5/AR5_5_07L_W4C4A2_link6/AR5_5_07L_W4C4A2_link7/AR5_5_07L_W4C4A2_tcp/lh_rk_adapter/lh_hand_base_link>
            custom rel physics:body1
            prepend rel physics:body1 = </ar5_o6_left/Geometry/world/AR5_5_07L_W4C4A2_base/AR5_5_07L_W4C4A2_link1/AR5_5_07L_W4C4A2_link2/AR5_5_07L_W4C4A2_link3/AR5_5_07L_W4C4A2_link4/AR5_5_07L_W4C4A2_link5/AR5_5_07L_W4C4A2_link6/AR5_5_07L_W4C4A2_link7/AR5_5_07L_W4C4A2_tcp/lh_rk_adapter/lh_hand_base_link/lh_middle_proximal>
            point3f physics:localPos0 = (0.00052576, -0.00634, 0.1027)
            point3f physics:localPos1 = (0, 0, 0)
            quatf physics:localRot0 = (1, 0, 0, 0)
            quatf physics:localRot1 = (1, 0, 0, 0)
            float physics:lowerLimit = 0
            float physics:upperLimit = 91.67325
            custom float urdf:limit:effort = 100
            custom float urdf:limit:velocity = 1
        }

        def PhysicsRevoluteJoint "lh_middle_dip" (
            prepend apiSchemas = ["NewtonMimicAPI", "PhysicsDriveAPI:angular", "PhysicsJointStateAPI:angular"]
        )
        {
            float drive:angular:physics:damping = 1.7453293
            float drive:angular:physics:maxForce = 100
            float drive:angular:physics:stiffness = 17.453293
            float newton:mimicCoef1 = 0.89
            rel newton:mimicJoint = </ar5_o6_left/Physics/lh_middle_mcp_pitch>
            uniform token physics:axis = "Y"
            custom rel physics:body0
            prepend rel physics:body0 = </ar5_o6_left/Geometry/world/AR5_5_07L_W4C4A2_base/AR5_5_07L_W4C4A2_link1/AR5_5_07L_W4C4A2_link2/AR5_5_07L_W4C4A2_link3/AR5_5_07L_W4C4A2_link4/AR5_5_07L_W4C4A2_link5/AR5_5_07L_W4C4A2_link6/AR5_5_07L_W4C4A2_link7/AR5_5_07L_W4C4A2_tcp/lh_rk_adapter/lh_hand_base_link/lh_middle_proximal>
            custom rel physics:body1
            prepend rel physics:body1 = </ar5_o6_left/Geometry/world/AR5_5_07L_W4C4A2_base/AR5_5_07L_W4C4A2_link1/AR5_5_07L_W4C4A2_link2/AR5_5_07L_W4C4A2_link3/AR5_5_07L_W4C4A2_link4/AR5_5_07L_W4C4A2_link5/AR5_5_07L_W4C4A2_link6/AR5_5_07L_W4C4A2_link7/AR5_5_07L_W4C4A2_tcp/lh_rk_adapter/lh_hand_base_link/lh_middle_proximal/lh_middle_distal>
            point3f physics:localPos0 = (-0.0052516, 0, 0.036625)
            point3f physics:localPos1 = (0, 0, 0)
            quatf physics:localRot0 = (1, 0, 0, 0)
            quatf physics:localRot1 = (1, 0, 0, 0)
            float physics:lowerLimit = 0
            float physics:upperLimit = 81.93297
            custom float urdf:limit:effort = 100
            custom float urdf:limit:velocity = 1
        }

        def PhysicsRevoluteJoint "lh_ring_mcp_pitch" (
            prepend apiSchemas = ["PhysicsDriveAPI:angular", "PhysicsJointStateAPI:angular"]
        )
        {
            float drive:angular:physics:damping = 1.7453293
            float drive:angular:physics:maxForce = 100
            float drive:angular:physics:stiffness = 17.453293
            uniform token physics:axis = "Y"
            custom rel physics:body0
            prepend rel physics:body0 = </ar5_o6_left/Geometry/world/AR5_5_07L_W4C4A2_base/AR5_5_07L_W4C4A2_link1/AR5_5_07L_W4C4A2_link2/AR5_5_07L_W4C4A2_link3/AR5_5_07L_W4C4A2_link4/AR5_5_07L_W4C4A2_link5/AR5_5_07L_W4C4A2_link6/AR5_5_07L_W4C4A2_link7/AR5_5_07L_W4C4A2_tcp/lh_rk_adapter/lh_hand_base_link>
            custom rel physics:body1
            prepend rel physics:body1 = </ar5_o6_left/Geometry/world/AR5_5_07L_W4C4A2_base/AR5_5_07L_W4C4A2_link1/AR5_5_07L_W4C4A2_link2/AR5_5_07L_W4C4A2_link3/AR5_5_07L_W4C4A2_link4/AR5_5_07L_W4C4A2_link5/AR5_5_07L_W4C4A2_link6/AR5_5_07L_W4C4A2_link7/AR5_5_07L_W4C4A2_tcp/lh_rk_adapter/lh_hand_base_link/lh_ring_proximal>
            point3f physics:localPos0 = (0.0010258, 0.011135, 0.098767)
            point3f physics:localPos1 = (0, 0, 0)
            quatf physics:localRot0 = (0.99965733, -0.026176646, 0, 0)
            quatf physics:localRot1 = (1, 0, 0, 0)
            float physics:lowerLimit = 0
            float physics:upperLimit = 91.67325
            custom float urdf:limit:effort = 100
            custom float urdf:limit:velocity = 1
        }

        def PhysicsRevoluteJoint "lh_ring_dip" (
            prepend apiSchemas = ["NewtonMimicAPI", "PhysicsDriveAPI:angular", "PhysicsJointStateAPI:angular"]
        )
        {
            float drive:angular:physics:damping = 1.7453293
            float drive:angular:physics:maxForce = 100
            float drive:angular:physics:stiffness = 17.453293
            float newton:mimicCoef1 = 0.89
            rel newton:mimicJoint = </ar5_o6_left/Physics/lh_ring_mcp_pitch>
            uniform token physics:axis = "Y"
            custom rel physics:body0
            prepend rel physics:body0 = </ar5_o6_left/Geometry/world/AR5_5_07L_W4C4A2_base/AR5_5_07L_W4C4A2_link1/AR5_5_07L_W4C4A2_link2/AR5_5_07L_W4C4A2_link3/AR5_5_07L_W4C4A2_link4/AR5_5_07L_W4C4A2_link5/AR5_5_07L_W4C4A2_link6/AR5_5_07L_W4C4A2_link7/AR5_5_07L_W4C4A2_tcp/lh_rk_adapter/lh_hand_base_link/lh_ring_proximal>
            custom rel physics:body1
            prepend rel physics:body1 = </ar5_o6_left/Geometry/world/AR5_5_07L_W4C4A2_base/AR5_5_07L_W4C4A2_link1/AR5_5_07L_W4C4A2_link2/AR5_5_07L_W4C4A2_link3/AR5_5_07L_W4C4A2_link4/AR5_5_07L_W4C4A2_link5/AR5_5_07L_W4C4A2_link6/AR5_5_07L_W4C4A2_link7/AR5_5_07L_W4C4A2_tcp/lh_rk_adapter/lh_hand_base_link/lh_ring_proximal/lh_ring_distal>
            point3f physics:localPos0 = (-0.0052516, 0, 0.036625)
            point3f physics:localPos1 = (0, 0, 0)
            quatf physics:localRot0 = (1, 0, 0, 0)
            quatf physics:localRot1 = (1, 0, 0, 0)
            float physics:lowerLimit = 0
            float physics:upperLimit = 81.93297
            custom float urdf:limit:effort = 100
            custom float urdf:limit:velocity = 1
        }

        def PhysicsRevoluteJoint "lh_pinky_mcp_pitch" (
            prepend apiSchemas = ["PhysicsDriveAPI:angular", "PhysicsJointStateAPI:angular"]
        )
        {
            float drive:angular:physics:damping = 1.7453293
            float drive:angular:physics:maxForce = 100
            float drive:angular:physics:stiffness = 17.453293
            uniform token physics:axis = "Y"
            custom rel physics:body0
            prepend rel physics:body0 = </ar5_o6_left/Geometry/world/AR5_5_07L_W4C4A2_base/AR5_5_07L_W4C4A2_link1/AR5_5_07L_W4C4A2_link2/AR5_5_07L_W4C4A2_link3/AR5_5_07L_W4C4A2_link4/AR5_5_07L_W4C4A2_link5/AR5_5_07L_W4C4A2_link6/AR5_5_07L_W4C4A2_link7/AR5_5_07L_W4C4A2_tcp/lh_rk_adapter/lh_hand_base_link>
            custom rel physics:body1
            prepend rel physics:body1 = </ar5_o6_left/Geometry/world/AR5_5_07L_W4C4A2_base/AR5_5_07L_W4C4A2_link1/AR5_5_07L_W4C4A2_link2/AR5_5_07L_W4C4A2_link3/AR5_5_07L_W4C4A2_link4/AR5_5_07L_W4C4A2_link5/AR5_5_07L_W4C4A2_link6/AR5_5_07L_W4C4A2_link7/AR5_5_07L_W4C4A2_tcp/lh_rk_adapter/lh_hand_base_link/lh_pinky_proximal>
            point3f physics:localPos0 = (0.0024758, 0.028372, 0.092741)
            point3f physics:localPos1 = (0, 0, 0)
            quatf physics:localRot0 = (0.99904823, -0.043619126, 0, 0)
            quatf physics:localRot1 = (1, 0, 0, 0)
            float physics:lowerLimit = 0
            float physics:upperLimit = 91.67325
            custom float urdf:limit:effort = 100
            custom float urdf:limit:velocity = 1
        }

        def PhysicsRevoluteJoint "lh_pinky_dip" (
            prepend apiSchemas = ["NewtonMimicAPI", "PhysicsDriveAPI:angular", "PhysicsJointStateAPI:angular"]
        )
        {
            float drive:angular:physics:damping = 1.7453293
            float drive:angular:physics:maxForce = 100
            float drive:angular:physics:stiffness = 17.453293
            float newton:mimicCoef1 = 0.89
            rel newton:mimicJoint = </ar5_o6_left/Physics/lh_pinky_mcp_pitch>
            uniform token physics:axis = "Y"
            custom rel physics:body0
            prepend rel physics:body0 = </ar5_o6_left/Geometry/world/AR5_5_07L_W4C4A2_base/AR5_5_07L_W4C4A2_link1/AR5_5_07L_W4C4A2_link2/AR5_5_07L_W4C4A2_link3/AR5_5_07L_W4C4A2_link4/AR5_5_07L_W4C4A2_link5/AR5_5_07L_W4C4A2_link6/AR5_5_07L_W4C4A2_link7/AR5_5_07L_W4C4A2_tcp/lh_rk_adapter/lh_hand_base_link/lh_pinky_proximal>
            custom rel physics:body1
            prepend rel physics:body1 = </ar5_o6_left/Geometry/world/AR5_5_07L_W4C4A2_base/AR5_5_07L_W4C4A2_link1/AR5_5_07L_W4C4A2_link2/AR5_5_07L_W4C4A2_link3/AR5_5_07L_W4C4A2_link4/AR5_5_07L_W4C4A2_link5/AR5_5_07L_W4C4A2_link6/AR5_5_07L_W4C4A2_link7/AR5_5_07L_W4C4A2_tcp/lh_rk_adapter/lh_hand_base_link/lh_pinky_proximal/lh_pinky_distal>
            point3f physics:localPos0 = (-0.0052516, -1.3877788e-17, 0.036625)
            point3f physics:localPos1 = (0, 0, 0)
            quatf physics:localRot0 = (1, 0, 0, 0)
            quatf physics:localRot1 = (1, 0, 0, 0)
            float physics:lowerLimit = 0
            float physics:upperLimit = 81.93297
            custom float urdf:limit:effort = 100
            custom float urdf:limit:velocity = 1
        }

        def PhysicsFixedJoint "root_joint"
        {
            custom rel physics:body0
            prepend rel physics:body0 = </ar5_o6_left>
            custom rel physics:body1
            prepend rel physics:body1 = </ar5_o6_left/Geometry/world>
            point3f physics:localPos0 = (0, 0, 0)
            point3f physics:localPos1 = (0, 0, 0)
            quatf physics:localRot0 = (1, 0, 0, 0)
            quatf physics:localRot1 = (1, 0, 0, 0)
        }

        def PhysicsFixedJoint "fixed"
        {
            custom rel physics:body0
            prepend rel physics:body0 = </ar5_o6_left/Geometry/world>
            custom rel physics:body1
            prepend rel physics:body1 = </ar5_o6_left/Geometry/world/AR5_5_07L_W4C4A2_base>
            point3f physics:localPos0 = (0, 0, 0)
            point3f physics:localPos1 = (0, 0, 0)
            quatf physics:localRot0 = (1, 0, 0, 0)
            quatf physics:localRot1 = (1, 0, 0, 0)
        }

        def PhysicsFixedJoint "AR5_5_07L_W4C4A2_tcp_joint"
        {
            custom rel physics:body0
            prepend rel physics:body0 = </ar5_o6_left/Geometry/world/AR5_5_07L_W4C4A2_base/AR5_5_07L_W4C4A2_link1/AR5_5_07L_W4C4A2_link2/AR5_5_07L_W4C4A2_link3/AR5_5_07L_W4C4A2_link4/AR5_5_07L_W4C4A2_link5/AR5_5_07L_W4C4A2_link6/AR5_5_07L_W4C4A2_link7>
            custom rel physics:body1
            prepend rel physics:body1 = </ar5_o6_left/Geometry/world/AR5_5_07L_W4C4A2_base/AR5_5_07L_W4C4A2_link1/AR5_5_07L_W4C4A2_link2/AR5_5_07L_W4C4A2_link3/AR5_5_07L_W4C4A2_link4/AR5_5_07L_W4C4A2_link5/AR5_5_07L_W4C4A2_link6/AR5_5_07L_W4C4A2_link7/AR5_5_07L_W4C4A2_tcp>
            point3f physics:localPos0 = (0, 0, 0.097)
            point3f physics:localPos1 = (0, 0, 0)
            quatf physics:localRot0 = (1, 0, 0, 0)
            quatf physics:localRot1 = (1, 0, 0, 0)
        }

        def PhysicsFixedJoint "rk_adapter_joint"
        {
            custom rel physics:body0
            prepend rel physics:body0 = </ar5_o6_left/Geometry/world/AR5_5_07L_W4C4A2_base/AR5_5_07L_W4C4A2_link1/AR5_5_07L_W4C4A2_link2/AR5_5_07L_W4C4A2_link3/AR5_5_07L_W4C4A2_link4/AR5_5_07L_W4C4A2_link5/AR5_5_07L_W4C4A2_link6/AR5_5_07L_W4C4A2_link7/AR5_5_07L_W4C4A2_tcp>
            custom rel physics:body1
            prepend rel physics:body1 = </ar5_o6_left/Geometry/world/AR5_5_07L_W4C4A2_base/AR5_5_07L_W4C4A2_link1/AR5_5_07L_W4C4A2_link2/AR5_5_07L_W4C4A2_link3/AR5_5_07L_W4C4A2_link4/AR5_5_07L_W4C4A2_link5/AR5_5_07L_W4C4A2_link6/AR5_5_07L_W4C4A2_link7/AR5_5_07L_W4C4A2_tcp/lh_rk_adapter>
            point3f physics:localPos0 = (0, 0, 0)
            point3f physics:localPos1 = (0, 0, 0)
            quatf physics:localRot0 = (1, 0, 0, 0)
            quatf physics:localRot1 = (1, 0, 0, 0)
        }

        def PhysicsFixedJoint "hand_mount_joint"
        {
            custom rel physics:body0
            prepend rel physics:body0 = </ar5_o6_left/Geometry/world/AR5_5_07L_W4C4A2_base/AR5_5_07L_W4C4A2_link1/AR5_5_07L_W4C4A2_link2/AR5_5_07L_W4C4A2_link3/AR5_5_07L_W4C4A2_link4/AR5_5_07L_W4C4A2_link5/AR5_5_07L_W4C4A2_link6/AR5_5_07L_W4C4A2_link7/AR5_5_07L_W4C4A2_tcp/lh_rk_adapter>
            custom rel physics:body1
            prepend rel physics:body1 = </ar5_o6_left/Geometry/world/AR5_5_07L_W4C4A2_base/AR5_5_07L_W4C4A2_link1/AR5_5_07L_W4C4A2_link2/AR5_5_07L_W4C4A2_link3/AR5_5_07L_W4C4A2_link4/AR5_5_07L_W4C4A2_link5/AR5_5_07L_W4C4A2_link6/AR5_5_07L_W4C4A2_link7/AR5_5_07L_W4C4A2_tcp/lh_rk_adapter/lh_hand_base_link>
            point3f physics:localPos0 = (0, 0, 0.0215)
            point3f physics:localPos1 = (0, 0, 0)
            quatf physics:localRot0 = (1, 0, 0, 0)
            quatf physics:localRot1 = (1, 0, 0, 0)
        }
    }
}

